<?xml version="1.0" encoding="utf-8"?>
<!-- Generator: Adobe Illustrator 27.5.0, SVG Export Plug-In . SVG Version: 6.00 Build 0)  -->
<svg version="1.1" xmlns="http://www.w3.org/2000/svg" xmlns:xlink="http://www.w3.org/1999/xlink" x="0px" y="0px"
	 viewBox="0 0 500 500" style="enable-background:new 0 0 500 500;" xml:space="preserve">
<g id="BACKGROUND">
	<rect transform="matrix(-1.836970e-16 1 -1 -1.836970e-16 500 5.684342e-14)" style="fill:#FFFFFF;" width="500" height="500"/>
</g>
<g id="OBJECTS">
	<g>
		<path style="opacity:0.06;fill:#3C8FC3;" d="M476.685,253.002c0,125.195-101.488,226.683-226.686,226.683
			c-125.194,0-226.684-101.488-226.684-226.683c0-125.197,101.49-226.688,226.684-226.688
			C375.197,26.315,476.685,127.805,476.685,253.002z"/>
		
			<ellipse transform="matrix(0.7071 -0.7071 0.7071 0.7071 -105.6759 250.8788)" style="opacity:0.1;fill:#3C8FC3;" cx="249.999" cy="253.001" rx="194.58" ry="194.581"/>
		
			<ellipse transform="matrix(0.2898 -0.9571 0.9571 0.2898 -64.5922 418.9582)" style="opacity:0.4;fill:#3C8FC3;" cx="249.999" cy="253.001" rx="152.071" ry="152.072"/>
	</g>
	<g>
		<g>
			<defs>
				
					<ellipse id="SVGID_1_" transform="matrix(0.7071 -0.7071 0.7071 0.7071 -105.6 250.9067)" cx="250.071" cy="252.924" rx="172.848" ry="172.848"/>
			</defs>
			<clipPath id="SVGID_00000081649252740134267560000018052993402071144349_">
				<use xlink:href="#SVGID_1_"  style="overflow:visible;"/>
			</clipPath>
			<g style="clip-path:url(#SVGID_00000081649252740134267560000018052993402071144349_);">
				<g>
					<defs>
						
							<rect id="SVGID_00000122715325691776752850000004714042962144026002_" x="27.605" y="-13.322" width="444.932" height="444.93"/>
					</defs>
					<clipPath id="SVGID_00000016069672325494474680000001534814746390761880_">
						<use xlink:href="#SVGID_00000122715325691776752850000004714042962144026002_"  style="overflow:visible;"/>
					</clipPath>
					<g style="clip-path:url(#SVGID_00000016069672325494474680000001534814746390761880_);">
						<rect x="29.509" y="-11.224" style="fill:#212A3C;" width="444.931" height="444.931"/>
						<g>
							<circle style="opacity:0.1;fill:#3C8FC3;" cx="250.071" cy="306.27" r="232.679"/>
							
								<ellipse transform="matrix(0.7071 -0.7071 0.7071 0.7071 -143.3209 266.5308)" style="opacity:0.2;fill:#3C8FC3;" cx="250.071" cy="306.269" rx="183.961" ry="183.962"/>
							
								<ellipse transform="matrix(0.1602 -0.9871 0.9871 0.1602 -92.3009 504.0513)" style="opacity:0.4;fill:#3C8FC3;" cx="250.07" cy="306.269" rx="149.333" ry="149.334"/>
						</g>
						<path style="opacity:0.15;fill:#212A3C;" d="M673.934,216.245c0-66.115-53.596-119.71-119.709-119.71
							c-45.489,0-85.053,25.375-105.309,62.74c-2.055-0.188-4.133-0.296-6.234-0.296c-28.038,0-52.113,16.933-62.579,41.126
							c-2.613-0.305-5.268-0.479-7.963-0.479c-31.523,0-58.035,21.404-65.829,50.469c-3.495-0.308-7.028-0.473-10.601-0.473
							c-18.776,0-36.541,4.326-52.357,12.029c-10.062-25.085-34.589-42.808-63.27-42.808c-16.943,0-32.43,6.196-44.354,16.428
							c-8.246-28.369-34.414-49.11-65.443-49.11c-3.07,0-6.084,0.223-9.047,0.615C47.22,136.236,0.884,99.135-54.121,99.135
							c-66.113,0-119.709,53.596-119.709,119.71c0,23.896,7.005,46.155,19.07,64.841c-1.203,6.815-1.835,13.824-1.835,20.983
							c0,66.113,53.596,119.709,119.71,119.709c15.517,0,30.345-2.951,43.951-8.326c17.017,45.385,60.792,77.691,112.12,77.691
							c36.103,0,68.47-15.982,90.421-41.258c21.768,22.535,52.295,36.557,86.103,36.557c42.173,0,79.248-21.813,100.571-54.766
							c21.397,20.023,50.145,32.285,81.76,32.285c66.115,0,119.711-53.596,119.711-119.709c0-6.299-0.49-12.482-1.429-18.52
							C641.666,311.295,673.934,267.539,673.934,216.245z"/>
						<path style="opacity:0.3;fill:#212A3C;" d="M-131.328,272.334c0-58.064,47.07-105.133,105.133-105.133
							c39.951,0,74.697,22.285,92.486,55.102c1.806-0.164,3.629-0.26,5.477-0.26c24.623,0,45.766,14.871,54.958,36.117
							c2.295-0.268,4.625-0.42,6.993-0.42c27.685,0,50.969,18.799,57.814,44.324c3.068-0.27,6.172-0.416,9.31-0.416
							c16.49,0,32.092,3.799,45.982,10.566c8.836-22.031,30.377-37.596,55.567-37.596c14.88,0,28.481,5.441,38.954,14.426
							c7.241-24.914,30.223-43.13,57.474-43.13c2.696,0,5.344,0.196,7.945,0.542c12.311-44.388,53.005-76.972,101.313-76.972
							c58.064,0,105.133,47.069,105.133,105.134c0,20.984-6.152,40.535-16.748,56.945c1.057,5.984,1.612,12.141,1.612,18.428
							c0,58.063-47.07,105.133-105.134,105.133c-13.628,0-26.651-2.592-38.6-7.313c-14.944,39.859-53.392,68.231-98.469,68.231
							c-31.706,0-60.133-14.035-79.41-36.234c-19.118,19.795-45.928,32.105-75.62,32.105c-37.037,0-69.598-19.154-88.325-48.096
							c-18.792,17.584-44.039,28.354-71.806,28.354c-58.063,0-105.133-47.07-105.133-105.135c0-5.531,0.43-10.961,1.254-16.262
							C-102.989,355.81-131.328,317.385-131.328,272.334z"/>
						<g>
							<g>
								<path style="fill:#FFFFFF;" d="M289.006,422.637c-10.472-21.518-24.533-103.947-24.533-103.947
									c15.029,62.978,34.641,99.799,37.826,105.535h50.089c-91.983-108.713-94.84-216.611-94.84-216.611h-14.872
									c0,0-2.855,107.898-94.839,216.611h150.32L289.006,422.637z M195.577,399.268c0,0,21.87-37.584,38.276-106.33
									c0,0-14.063,82.43-24.534,103.947L195.577,399.268z M243.953,399.379l-13.041,4.943c0,0,15.182-59.561,18.257-130.172
									C249.169,274.15,250.155,376.266,243.953,399.379z"/>
								<g>
									<path style="fill:#FFFFFF;" d="M271.981,257.213c0,0,27.94,78.813,41.934,98.227h13.947
										C327.862,355.44,299.893,322.143,271.981,257.213z"/>
									<path style="fill:#FFFFFF;" d="M292.502,279.397c0,0,39.605,73.644,56.39,90.703l13.784-2.121
										C362.676,367.978,329.969,339.324,292.502,279.397z"/>
									<path style="fill:#FFFFFF;" d="M221.99,268.305c0,0-27.94,78.814-41.934,98.225h-13.947
										C166.109,366.529,194.08,333.234,221.99,268.305z"/>
									<path style="fill:#FFFFFF;" d="M201.47,290.486c0,0-39.605,73.648-56.39,90.705l-13.785-2.121
										C131.295,379.07,164.003,350.418,201.47,290.486z"/>
								</g>
							</g>
						</g>
						<g>
							<g>
								
									<ellipse transform="matrix(0.0416 -0.9991 0.9991 0.0416 -24.3135 819.2752)" style="fill:#FFFFFF;" cx="414.874" cy="422.311" rx="90.607" ry="90.607"/>
								<circle style="fill:#FFFFFF;" cx="276.868" cy="439.326" r="90.607"/>
								<g>
									
										<ellipse transform="matrix(0.7071 -0.7071 0.7071 0.7071 -90.3146 428.8719)" style="fill:#FFFFFF;" cx="472.537" cy="323.455" rx="90.607" ry="90.607"/>
									<path style="fill:#FFFFFF;" d="M233.865,442.885c0,50.041-40.566,90.607-90.607,90.607s-90.607-40.566-90.607-90.607
										s40.566-90.605,90.607-90.605S233.865,392.844,233.865,442.885z"/>
									<path style="fill:#FFFFFF;" d="M115.735,390.383c0,50.041-40.566,90.607-90.607,90.607
										c-50.041,0-90.607-40.566-90.607-90.607s40.566-90.605,90.607-90.605C75.169,299.777,115.735,340.342,115.735,390.383z"/>
									
										<ellipse transform="matrix(0.344 -0.939 0.939 0.344 -297.6411 224.838)" style="fill:#FFFFFF;" cx="12.083" cy="325.424" rx="90.607" ry="90.607"/>
									<path style="fill:#FFFFFF;" d="M157.836,352.279c0,28.492-23.098,51.592-51.592,51.592
										c-28.493,0-51.592-23.1-51.592-51.592c0-28.494,23.099-51.594,51.592-51.594
										C134.738,300.685,157.836,323.785,157.836,352.279z"/>
									<circle style="fill:#FFFFFF;" cx="334.718" cy="362.471" r="51.592"/>
									<circle style="fill:#FFFFFF;" cx="388.109" cy="331.703" r="51.592"/>
									<circle style="fill:#FFFFFF;" cx="189.349" cy="377.016" r="51.592"/>
								</g>
							</g>
							<g>
								<g>
									<g>
										<path style="fill:#E6E7E8;" d="M66.415,386.664c13.652,0,25.263,5.992,29.559,14.352
											c-3.216-13.342-15.229-23.258-29.559-23.258c-14.33,0-26.343,9.916-29.559,23.258
											C41.151,392.656,52.763,386.664,66.415,386.664z"/>
									</g>
									<g>
										<path style="fill:#E6E7E8;" d="M107.771,370.133c-5.544-2.109-11.76-2.623-17.959-1.115
											c-8.441,2.053-15.188,7.445-19.191,14.432c2.075,0.119,4.07,0.574,5.923,1.336c4.192-3.154,9.438-5.672,15.373-7.113
											c2.323-0.565,4.626-0.926,6.883-1.115C101.078,373.609,104.192,371.338,107.771,370.133z"/>
									</g>
									<g>
										<path style="fill:#E6E7E8;" d="M134.566,374.918c17.799,4.357,31.026,15.879,33.957,28.148
											c0.068-18.424-12.429-35.186-31.113-39.762c-18.685-4.576-37.512,4.516-45.966,20.885
											C99.714,374.662,116.766,370.559,134.566,374.918z"/>
									</g>
								</g>
								<g>
									<g>
										<path style="fill:#E6E7E8;" d="M259.886,382.152c20.666,0,38.242,9.07,44.745,21.725
											c-4.869-20.197-23.053-35.205-44.745-35.205c-21.692,0-39.876,15.008-44.745,35.205
											C221.644,391.223,239.22,382.152,259.886,382.152z"/>
									</g>
									<g>
										<path style="fill:#E6E7E8;" d="M275.103,374.674c0.21-0.006,0.41-0.029,0.623-0.029c4.299,0,8.772,1.773,12.284,4.66
											c10.104-16.521,25.643-26.438,39.167-26.016C307.399,347.83,285.763,356.19,275.103,374.674z"/>
									</g>
								</g>
								<g>
									<g>
										<path style="fill:#E6E7E8;" d="M435.962,289.063c19-17.199,42.705-23.492,59.214-17.27
											c-21.285-14.516-50.489-13.178-70.433,4.873c-19.942,18.053-24.169,46.981-11.836,69.6
											C408.353,329.223,416.964,306.258,435.962,289.063z"/>
									</g>
									<g>
										<path style="fill:#E6E7E8;" d="M410.507,315.428c-4.271-0.445-8.704-0.029-13.051,1.381
											c-14.235,4.611-22.983,18.326-21.883,32.617c1.575-9.688,11.185-19.377,24.749-23.77c2.568-0.832,5.134-1.424,7.651-1.797
											C408.134,320.838,409.028,317.959,410.507,315.428z"/>
									</g>
								</g>
								<g>
									<g>
										<path style="fill:#E6E7E8;" d="M67.345,295.92c14.558,10.178,22.473,25.221,20.822,37.336
											c6.516-16.625,1.098-36.15-14.183-46.832c-15.279-10.684-35.48-9.068-48.855,2.762
											C35.941,283.475,52.788,285.742,67.345,295.92z"/>
									</g>
									<g>
										<path style="fill:#E6E7E8;" d="M184.509,351.217c12.903,3.719,22.247,12.543,24.031,21.615
											c0.592-13.488-8.062-26.131-21.607-30.031c-13.544-3.904-27.599,2.195-34.272,13.932
											C158.997,350,171.604,347.5,184.509,351.217z"/>
									</g>
									<g>
										<path style="fill:#E6E7E8;" d="M85.918,310.645c2.093,2.922,3.402,6.631,3.702,10.383
											c13.167-3.064,25.688-0.984,33.258,5.367C114.354,314.816,100.114,308.787,85.918,310.645z"/>
									</g>
								</g>
								<g>
									<g>
										<path style="fill:#E6E7E8;" d="M383.903,384.885c11.261-4.285,22.717-2.988,28.883,2.557
											c-6.841-9.992-19.859-14.4-31.68-9.902c-11.819,4.5-18.613,16.447-17.078,28.459
											C364.947,397.756,372.642,389.172,383.903,384.885z"/>
									</g>
									<g>
										<path style="fill:#E6E7E8;" d="M399.246,380.082c2.436-0.06,5.016,0.621,7.235,1.883
											c3.302-8.557,9.243-14.787,15.693-16.611C412.43,365.721,403.616,371.41,399.246,380.082z"/>
									</g>
								</g>
							</g>
						</g>
					</g>
				</g>
			</g>
			<g style="clip-path:url(#SVGID_00000081649252740134267560000018052993402071144349_);">
				<path style="fill:#FFFFFF;" d="M382.988,86.326c0,1.047-0.85,1.896-1.897,1.896c-1.045,0-1.895-0.85-1.895-1.896
					c0-1.047,0.85-1.895,1.895-1.895C382.139,84.432,382.988,85.279,382.988,86.326z"/>
				<path style="fill:#FFFFFF;" d="M79.87,78.324c0,1.046-0.849,1.895-1.895,1.895c-1.046,0-1.896-0.849-1.896-1.895
					c0-1.047,0.849-1.897,1.896-1.897C79.021,76.428,79.87,77.277,79.87,78.324z"/>
				<path style="fill:#FFFFFF;" d="M150.631,115.95c0,1.046-0.849,1.896-1.896,1.896c-1.046,0-1.895-0.85-1.895-1.896
					c0-1.047,0.849-1.896,1.895-1.896C149.782,114.055,150.631,114.903,150.631,115.95z"/>
				<path style="fill:#FFFFFF;" d="M77.975,164.809c0,1.047-0.849,1.895-1.896,1.895c-1.046,0-1.895-0.848-1.895-1.895
					c0-1.047,0.849-1.896,1.895-1.896C77.126,162.912,77.975,163.762,77.975,164.809z"/>
				<path style="fill:#FFFFFF;" d="M346.274,117.846c0,1.047-0.849,1.896-1.896,1.896c-1.046,0-1.895-0.849-1.895-1.896
					c0-1.047,0.849-1.896,1.895-1.896C345.426,115.95,346.274,116.799,346.274,117.846z"/>
				<path style="fill:#FFFFFF;" d="M410.085,164.809c0,1.047-0.85,1.895-1.895,1.895c-1.047,0-1.896-0.848-1.896-1.895
					c0-1.047,0.85-1.896,1.896-1.896C409.235,162.912,410.085,163.762,410.085,164.809z"/>
				<path style="fill:#FFFFFF;" d="M440.756,86.326c0,1.047-0.85,1.896-1.896,1.896c-1.046,0-1.895-0.85-1.895-1.896
					c0-1.047,0.849-1.895,1.895-1.895C439.906,84.432,440.756,85.279,440.756,86.326z"/>
				<path style="fill:#FFFFFF;" d="M193.311,67.443c0,1.047-0.849,1.895-1.895,1.895s-1.896-0.848-1.896-1.895
					c0-1.047,0.849-1.896,1.896-1.896S193.311,66.396,193.311,67.443z"/>
				<path style="fill:#FFFFFF;" d="M80.466,121.637c0,0.329-0.267,0.596-0.596,0.596c-0.33,0-0.596-0.267-0.596-0.596
					c0-0.33,0.267-0.597,0.596-0.597C80.2,121.04,80.466,121.307,80.466,121.637z"/>
				<path style="fill:#FFFFFF;" d="M121.779,80.219c0,0.33-0.267,0.597-0.596,0.597c-0.33,0-0.596-0.267-0.596-0.597
					c0-0.329,0.267-0.596,0.596-0.596C121.512,79.623,121.779,79.89,121.779,80.219z"/>
				<path style="fill:#FFFFFF;" d="M104.404,127.218c0,0.329-0.267,0.597-0.597,0.597c-0.329,0-0.596-0.268-0.596-0.597
					c0-0.329,0.267-0.597,0.596-0.597C104.137,126.621,104.404,126.889,104.404,127.218z"/>
				<path style="fill:#FFFFFF;" d="M179.657,93.521c0,0.33-0.267,0.597-0.596,0.597c-0.33,0-0.596-0.267-0.596-0.597
					c0-0.329,0.267-0.596,0.596-0.596C179.391,92.926,179.657,93.192,179.657,93.521z"/>
				<path style="fill:#FFFFFF;" d="M193.908,121.04c0,0.329-0.267,0.597-0.597,0.597c-0.329,0-0.596-0.268-0.596-0.597
					s0.267-0.597,0.596-0.597C193.641,120.443,193.908,120.711,193.908,121.04z"/>
				<path style="fill:#FFFFFF;" d="M135.257,141.223c0,0.328-0.267,0.596-0.596,0.596c-0.329,0-0.596-0.268-0.596-0.596
					c0-0.33,0.267-0.598,0.596-0.598C134.99,140.625,135.257,140.893,135.257,141.223z"/>
				<path style="fill:#FFFFFF;" d="M74.781,198.98c0,0.329-0.267,0.596-0.596,0.596c-0.33,0-0.597-0.267-0.597-0.596
					c0-0.33,0.268-0.597,0.597-0.597C74.514,198.384,74.781,198.65,74.781,198.98z"/>
				<path style="fill:#FFFFFF;" d="M56.669,102.508c0,0.329-0.267,0.596-0.597,0.596c-0.329,0-0.596-0.267-0.596-0.596
					c0-0.33,0.267-0.597,0.596-0.597C56.402,101.911,56.669,102.178,56.669,102.508z"/>
				<path style="fill:#FFFFFF;" d="M219.53,80.219c0,0.33-0.267,0.597-0.596,0.597c-0.33,0-0.597-0.267-0.597-0.597
					c0-0.329,0.268-0.596,0.597-0.596C219.263,79.623,219.53,79.89,219.53,80.219z"/>
				<path style="fill:#FFFFFF;" d="M151.227,177.198c0,0.329-0.267,0.597-0.596,0.597c-0.33,0-0.597-0.268-0.597-0.597
					s0.267-0.597,0.597-0.597C150.96,176.602,151.227,176.869,151.227,177.198z"/>
				<path style="fill:#FFFFFF;" d="M114.513,198.98c0,0.329-0.267,0.596-0.597,0.596c-0.33,0-0.597-0.267-0.597-0.596
					c0-0.33,0.267-0.597,0.597-0.597C114.246,198.384,114.513,198.65,114.513,198.98z"/>
				<path style="fill:#FFFFFF;" d="M76.676,239.528c0,0.33-0.267,0.598-0.597,0.598c-0.33,0-0.596-0.268-0.596-0.598
					c0-0.328,0.267-0.596,0.596-0.596C76.409,238.933,76.676,239.2,76.676,239.528z"/>
				<path style="fill:#FFFFFF;" d="M193.311,166.703c0,0.33-0.267,0.598-0.596,0.598c-0.329,0-0.596-0.268-0.596-0.598
					c0-0.328,0.267-0.596,0.596-0.596C193.044,166.107,193.311,166.375,193.311,166.703z"/>
				<path style="fill:#FFFFFF;" d="M149.332,191.203c0,0.33-0.268,0.597-0.597,0.597c-0.329,0-0.596-0.267-0.596-0.597
					c0-0.329,0.267-0.596,0.596-0.596C149.064,190.607,149.332,190.874,149.332,191.203z"/>
				<path style="fill:#FFFFFF;" d="M172.953,122.232c0,0.33-0.267,0.597-0.597,0.597c-0.329,0-0.596-0.267-0.596-0.597
					c0-0.329,0.267-0.596,0.596-0.596C172.686,121.637,172.953,121.903,172.953,122.232z"/>
				<path style="fill:#FFFFFF;" d="M151.824,76.428c0,0.33-0.267,0.597-0.597,0.597c-0.33,0-0.596-0.267-0.596-0.597
					c0-0.329,0.267-0.596,0.596-0.596C151.557,75.832,151.824,76.099,151.824,76.428z"/>
				<circle style="fill:#FFFFFF;" cx="245.855" cy="62.6" r="0.596"/>
				<path style="fill:#FFFFFF;" d="M296.434,94.118c0,0.329-0.267,0.597-0.597,0.597c-0.33,0-0.597-0.267-0.597-0.597
					s0.267-0.597,0.597-0.597C296.167,93.521,296.434,93.789,296.434,94.118z"/>
				<path style="fill:#FFFFFF;" d="M316.65,69.338c0,0.33-0.267,0.598-0.597,0.598c-0.33,0-0.597-0.268-0.597-0.598
					c0-0.329,0.267-0.596,0.597-0.596C316.384,68.742,316.65,69.009,316.65,69.338z"/>
				<path style="fill:#FFFFFF;" d="M312.72,122.232c0,0.33-0.267,0.597-0.597,0.597c-0.33,0-0.597-0.267-0.597-0.597
					c0-0.329,0.267-0.596,0.597-0.596C312.453,121.637,312.72,121.903,312.72,122.232z"/>
				<path style="fill:#FFFFFF;" d="M334.06,80.815c0,0.329-0.267,0.597-0.597,0.597c-0.33,0-0.596-0.268-0.596-0.597
					s0.266-0.597,0.596-0.597C333.793,80.219,334.06,80.486,334.06,80.815z"/>
				<path style="fill:#FFFFFF;" d="M390.779,115.95c0,0.329-0.266,0.597-0.596,0.597s-0.597-0.268-0.597-0.597
					c0-0.329,0.267-0.597,0.597-0.597S390.779,115.621,390.779,115.95z"/>
				<path style="fill:#FFFFFF;" d="M367.755,132.798c0,0.329-0.266,0.597-0.596,0.597c-0.33,0-0.597-0.268-0.597-0.597
					s0.267-0.597,0.597-0.597C367.489,132.201,367.755,132.469,367.755,132.798z"/>
				<path style="fill:#FFFFFF;" d="M395.835,67.443c0,0.329-0.268,0.596-0.597,0.596c-0.33,0-0.598-0.267-0.598-0.596
					c0-0.33,0.268-0.597,0.598-0.597C395.567,66.847,395.835,67.113,395.835,67.443z"/>
				<path style="fill:#FFFFFF;" d="M445.816,122.829c0,0.329-0.267,0.597-0.597,0.597s-0.596-0.268-0.596-0.597
					s0.266-0.597,0.596-0.597S445.816,122.5,445.816,122.829z"/>
				<path style="fill:#FFFFFF;" d="M390.779,145.118c0,0.329-0.266,0.597-0.596,0.597s-0.597-0.268-0.597-0.597
					s0.267-0.597,0.597-0.597S390.779,144.789,390.779,145.118z"/>
				<path style="fill:#FFFFFF;" d="M437.56,190.607c0,0.33-0.266,0.596-0.596,0.596c-0.33,0-0.597-0.266-0.597-0.596
					c0-0.33,0.267-0.597,0.597-0.597C437.295,190.011,437.56,190.277,437.56,190.607z"/>
				<path style="fill:#FFFFFF;" d="M367.159,199.576c0,0.33-0.267,0.597-0.597,0.597s-0.597-0.267-0.597-0.597
					c0-0.33,0.267-0.596,0.597-0.596S367.159,199.246,367.159,199.576z"/>
				<path style="fill:#FFFFFF;" d="M343.08,157.473c0,0.33-0.267,0.597-0.596,0.597c-0.33,0-0.598-0.267-0.598-0.597
					c0-0.329,0.268-0.596,0.598-0.596C342.814,156.877,343.08,157.144,343.08,157.473z"/>
				<path style="fill:#FFFFFF;" d="M312.123,158.069c0,0.329-0.267,0.597-0.597,0.597c-0.33,0-0.596-0.268-0.596-0.597
					s0.266-0.597,0.596-0.597C311.856,157.473,312.123,157.74,312.123,158.069z"/>
				<path style="fill:#FFFFFF;" d="M343.677,181.096c0,0.329-0.267,0.596-0.597,0.596c-0.33,0-0.596-0.267-0.596-0.596
					c0-0.33,0.266-0.598,0.596-0.598C343.41,180.498,343.677,180.766,343.677,181.096z"/>
				<path style="fill:#FFFFFF;" d="M408.786,213.105c0,0.33-0.267,0.597-0.596,0.597c-0.33,0-0.598-0.267-0.598-0.597
					c0-0.329,0.268-0.596,0.598-0.596C408.52,212.51,408.786,212.776,408.786,213.105z"/>
				<path style="fill:#FFFFFF;" d="M399.273,232.199c0,0.33-0.266,0.597-0.596,0.597c-0.33,0-0.597-0.267-0.597-0.597
					c0-0.329,0.267-0.596,0.597-0.596C399.008,231.604,399.273,231.87,399.273,232.199z"/>
				<path style="fill:#FFFFFF;" d="M438.157,151.893c0,0.329-0.267,0.597-0.597,0.597c-0.33,0-0.596-0.268-0.596-0.597
					c0-0.33,0.266-0.597,0.596-0.597C437.891,151.296,438.157,151.563,438.157,151.893z"/>
				<path style="fill:#FFFFFF;" d="M419.456,109.773c0,0.329-0.266,0.596-0.596,0.596c-0.33,0-0.597-0.267-0.597-0.596
					c0-0.33,0.267-0.597,0.597-0.597C419.19,109.177,419.456,109.443,419.456,109.773z"/>
				<path style="fill:#FFFFFF;" d="M113.916,162.912c0,0.33-0.267,0.598-0.597,0.598c-0.33,0-0.596-0.268-0.596-0.598
					c0-0.328,0.267-0.596,0.596-0.596C113.65,162.316,113.916,162.584,113.916,162.912z"/>
				<path style="fill:#FFFFFF;" d="M57.266,141.818c0,0.33-0.267,0.596-0.596,0.596c-0.33,0-0.597-0.266-0.597-0.596
					c0-0.33,0.267-0.596,0.597-0.596C56.999,141.223,57.266,141.488,57.266,141.818z"/>
				<path style="fill:#FFFFFF;" d="M280.743,69.936c0,0.329-0.267,0.596-0.597,0.596c-0.33,0-0.596-0.267-0.596-0.596
					c0-0.33,0.266-0.598,0.596-0.598C280.477,69.338,280.743,69.605,280.743,69.936z"/>
				<path style="fill:#FFFFFF;" d="M288.605,115.354c0,0.33-0.266,0.597-0.596,0.597c-0.33,0-0.597-0.267-0.597-0.597
					s0.267-0.596,0.597-0.596C288.34,114.758,288.605,115.023,288.605,115.354z"/>
			</g>
		</g>
		<g>
			<path style="fill:#FFFFFF;" d="M250.071,430.185c-97.743,0-177.263-79.518-177.263-177.262
				c0-97.743,79.519-177.262,177.263-177.262c97.743,0,177.262,79.52,177.262,177.262
				C427.333,350.667,347.814,430.185,250.071,430.185z M250.071,81.076c-94.757,0-171.848,77.09-171.848,171.848
				c0,94.757,77.091,171.848,171.848,171.848s171.848-77.091,171.848-171.848C421.919,158.167,344.829,81.076,250.071,81.076z"/>
		</g>
		<g>
			<g>
				<g>
					<g>
						<polygon style="fill:#F1F2F2;" points="210.127,166.166 224.716,215.837 172.265,230.757 172.265,192.457 						"/>
						<polygon style="fill:#BE1E2D;" points="185.246,227.065 172.265,230.757 172.265,192.457 185.246,183.444 						"/>
					</g>
					<path style="opacity:0.1;fill:#414042;" d="M208.912,220.333c-3.205-17.141-13.482-33.508-18.376-40.563l19.592-13.604
						l14.589,49.671L208.912,220.333z"/>
				</g>
				<polygon style="opacity:0.5;fill:#FFFFFF;" points="176.643,194.227 176.643,208.047 181.02,196.569 197.136,181.59 				"/>
			</g>
			<g>
				<g>
					<g>
						<polygon style="fill:#F1F2F2;" points="290.002,166.166 275.411,215.837 327.862,230.757 327.862,192.457 						"/>
						<polygon style="fill:#BE1E2D;" points="314.883,227.065 327.862,230.757 327.862,192.457 314.883,183.444 						"/>
					</g>
					<path style="opacity:0.1;fill:#414042;" d="M291.217,220.333c3.204-17.141,13.481-33.508,18.375-40.563l-19.59-13.604
						l-14.591,49.671L291.217,220.333z"/>
				</g>
				<polygon style="opacity:0.5;fill:#FFFFFF;" points="324.857,194.227 324.857,208.047 320.48,196.569 304.365,181.59 				"/>
			</g>
			<g>
				<rect x="233.98" y="221.602" style="fill:#BE1E2D;" width="32.228" height="13.89"/>
				<polygon style="fill:#939598;" points="268.729,242.214 231.46,242.214 233.98,233.634 266.208,233.634 				"/>
				<rect x="219.616" y="211.241" style="fill:#D1D3D4;" width="60.955" height="16.659"/>
				<polygon style="opacity:0.1;fill:#414042;" points="280.571,215.268 225.047,219.571 280.571,224.393 				"/>
			</g>
			<g>
				<path style="fill:#F1F2F2;" d="M288.575,219.046c4.587-12.173,7.247-28.417,7.247-49.459
					c0-58.369-33.044-131.542-45.729-131.542c-12.683,0-45.727,73.173-45.727,131.542c0,21.042,2.661,37.286,7.248,49.459H288.575z"
					/>
				<path style="fill:#BE1E2D;" d="M205.376,151.064h89.436c-0.742-7.162-1.869-14.4-3.293-21.574h-82.85
					C207.245,136.664,206.119,143.902,205.376,151.064z"/>
				<path style="fill:#BE1E2D;" d="M227.39,70.041h45.409c-8.523-19.18-17.395-31.996-22.705-31.996
					C244.787,38.045,235.915,50.861,227.39,70.041z"/>
				<path style="fill:#BE1E2D;" d="M206.592,199.623c1.223,7.376,2.916,14.358,5.022,19.948h76.96
					c2.105-5.59,3.799-12.572,5.022-19.948H206.592z"/>
			</g>
			<path style="opacity:0.5;fill:#FFFFFF;" d="M256.921,49.61c-0.125-0.116-0.254-0.239-0.384-0.374
				c-0.288-0.277-0.571-0.559-0.874-0.824c-6.207-5.432-11.558,0.733-11.569,0.743c-4.913,5.089-11.825,15.083-16.704,33.759
				c0,0,18.842-34.079,37.117-23.954C264.507,58.96,261.356,54.009,256.921,49.61z"/>
			<g>
				<path style="fill:#9B9D9E;" d="M277.923,117.747c0,15.368-12.458,27.827-27.829,27.827c-15.368,0-27.828-12.459-27.828-27.827
					c0-15.37,12.46-27.829,27.828-27.829C265.465,89.918,277.923,102.377,277.923,117.747z"/>
				<g>
					<path style="fill:#FFFFFF;" d="M269.024,117.747c0,10.454-8.475,18.929-18.931,18.929c-10.453,0-18.929-8.475-18.929-18.929
						c0-10.455,8.476-18.929,18.929-18.929C260.55,98.818,269.024,107.292,269.024,117.747z"/>
					<path style="fill:#27AAE1;" d="M266.772,117.747c0,9.21-7.467,16.676-16.678,16.676c-9.209,0-16.676-7.466-16.676-16.676
						c0-9.211,7.467-16.677,16.676-16.677C259.305,101.07,266.772,108.536,266.772,117.747z"/>
					<g style="opacity:0.5;">
						<path style="fill:#FFFFFF;" d="M266.393,114.215c-0.519-2.409-1.556-4.624-2.994-6.521l-23.358,23.357
							c1.898,1.438,4.114,2.475,6.523,2.994L266.393,114.215z"/>
						<path style="fill:#FFFFFF;" d="M250.094,101.07c-0.432,0-0.86,0.021-1.284,0.055l-15.338,15.336
							c-0.032,0.426-0.054,0.852-0.054,1.286c0,4.581,1.849,8.729,4.838,11.743l23.583-23.582
							C258.823,102.918,254.675,101.07,250.094,101.07z"/>
					</g>
				</g>
				<path style="fill:#FFFFFF;" d="M252.556,94.936c0,1.358-1.103,2.46-2.462,2.46c-1.358,0-2.46-1.102-2.46-2.46
					c0-1.36,1.102-2.461,2.46-2.461C251.453,92.475,252.556,93.575,252.556,94.936z M250.094,138.098c-1.358,0-2.46,1.102-2.46,2.46
					c0,1.36,1.102,2.462,2.46,2.462c1.359,0,2.462-1.102,2.462-2.462C252.556,139.199,251.453,138.098,250.094,138.098z
					 M275.367,117.747c0-1.359-1.102-2.462-2.46-2.462c-1.361,0-2.463,1.103-2.463,2.462c0,1.358,1.102,2.46,2.463,2.46
					C274.266,120.207,275.367,119.105,275.367,117.747z M229.744,117.747c0-1.359-1.102-2.462-2.461-2.462
					c-1.359,0-2.46,1.103-2.46,2.462c0,1.358,1.102,2.46,2.46,2.46C228.643,120.207,229.744,119.105,229.744,117.747z
					 M267.965,99.877c-0.962-0.961-2.52-0.961-3.48,0c-0.961,0.961-0.961,2.519,0,3.48c0.961,0.96,2.518,0.96,3.48,0
					C268.927,102.396,268.927,100.838,267.965,99.877z M235.705,132.137c-0.961-0.961-2.519-0.961-3.48,0
					c-0.961,0.961-0.961,2.52,0,3.48c0.961,0.961,2.519,0.961,3.48,0C236.665,134.656,236.665,133.098,235.705,132.137z
					 M267.965,135.617c0.962-0.961,0.962-2.519,0-3.48c-0.962-0.961-2.52-0.961-3.48,0c-0.961,0.961-0.961,2.52,0,3.48
					C265.446,136.578,267.006,136.578,267.965,135.617z M235.705,103.357c0.96-0.961,0.961-2.52,0-3.48
					c-0.961-0.961-2.519-0.961-3.48,0c-0.961,0.961-0.961,2.52,0,3.48C233.186,104.317,234.743,104.317,235.705,103.357z"/>
			</g>
			<g>
				<g>
					<rect x="230.786" y="172.178" style="fill:#E6E7E8;" width="38.617" height="18.826"/>
					<g>
						<rect x="241.836" y="176.371" style="fill:#A4B5CA;" width="16.517" height="1.116"/>
						<rect x="241.836" y="179.447" style="fill:#A4B5CA;" width="16.517" height="1.117"/>
						<rect x="241.836" y="182.526" style="fill:#A4B5CA;" width="16.517" height="1.116"/>
						<rect x="241.836" y="185.604" style="fill:#A4B5CA;" width="16.517" height="1.116"/>
					</g>
					<path style="fill:#A4B5CA;" d="M233.507,173.996c0,0.457-0.371,0.826-0.828,0.826c-0.458,0-0.829-0.369-0.829-0.826
						s0.371-0.828,0.829-0.828C233.136,173.168,233.507,173.539,233.507,173.996z"/>
					<path style="fill:#A4B5CA;" d="M233.507,189.186c0,0.457-0.371,0.828-0.828,0.828c-0.458,0-0.829-0.371-0.829-0.828
						c0-0.457,0.371-0.826,0.829-0.826C233.136,188.359,233.507,188.729,233.507,189.186z"/>
					<path style="fill:#A4B5CA;" d="M268.345,173.996c0,0.457-0.37,0.826-0.829,0.826c-0.456,0-0.827-0.369-0.827-0.826
						s0.371-0.828,0.827-0.828C267.975,173.168,268.345,173.539,268.345,173.996z"/>
					<path style="fill:#A4B5CA;" d="M268.345,189.186c0,0.457-0.37,0.828-0.829,0.828c-0.456,0-0.827-0.371-0.827-0.828
						c0-0.457,0.371-0.826,0.827-0.826C267.975,188.359,268.345,188.729,268.345,189.186z"/>
				</g>
				<g style="opacity:0.6;">
					<polygon style="fill:#FFFFFF;" points="266.327,172.178 262.605,172.178 243.779,191.004 247.5,191.004 					"/>
					<polygon style="fill:#FFFFFF;" points="258.194,172.178 250.895,172.178 232.068,191.004 239.369,191.004 					"/>
					<polygon style="fill:#FFFFFF;" points="230.786,178.611 230.786,189.908 248.518,172.178 237.219,172.178 					"/>
				</g>
			</g>
			<g>
				<g>
					<rect x="230.883" y="158.717" style="fill:#E6E7E8;" width="6.961" height="6.961"/>
					<g>
						<rect x="231.848" y="159.682" style="fill:#A4B5CA;" width="5.031" height="5.031"/>
						<polygon style="opacity:0.4;fill:#FFFFFF;" points="231.848,163.676 235.843,159.682 231.848,159.682 						"/>
					</g>
				</g>
				<g>
					<rect x="241.429" y="158.717" style="fill:#E6E7E8;" width="6.961" height="6.961"/>
					<g>
						<rect x="242.395" y="159.682" style="fill:#BE1E2D;" width="5.031" height="5.031"/>
						<polygon style="opacity:0.4;fill:#FFFFFF;" points="245.938,159.682 242.395,159.682 242.395,163.227 						"/>
					</g>
				</g>
				<g>
					<rect x="251.975" y="158.717" style="fill:#E6E7E8;" width="6.961" height="6.961"/>
					<g>
						<rect x="252.94" y="159.682" style="fill:#FBB040;" width="5.03" height="5.031"/>
						<polygon style="opacity:0.4;fill:#FFFFFF;" points="256.482,159.682 252.94,159.682 252.94,163.225 						"/>
					</g>
				</g>
				<g>
					<rect x="262.441" y="158.717" style="fill:#E6E7E8;" width="6.962" height="6.961"/>
					<g>
						<rect x="263.487" y="159.682" style="fill:#BE1E2D;" width="5.03" height="5.031"/>
						<polygon style="opacity:0.4;fill:#FFFFFF;" points="266.99,159.682 263.487,159.682 263.487,163.188 						"/>
					</g>
				</g>
			</g>
		</g>
	</g>
</g>
</svg>
