<?xml version="1.0" encoding="utf-8"?>
<!-- Generator: Adobe Illustrator 27.5.0, SVG Export Plug-In . SVG Version: 6.00 Build 0)  -->
<svg version="1.1" xmlns="http://www.w3.org/2000/svg" xmlns:xlink="http://www.w3.org/1999/xlink" x="0px" y="0px"
	 viewBox="0 0 750 500" style="enable-background:new 0 0 750 500;" xml:space="preserve">
<g id="BACKGROUND">
	<rect style="fill:#FFFFFF;" width="750" height="500"/>
	<path style="fill:#E2F5F7;" d="M551.847,310.136c13.111-8.291,24.357-19.801,36.755-28.981
		c19.136-14.169,42.575-20.678,61.99-34.93c20.063-14.726,36.377-39.588,29.609-63.537c-5.226-18.494-22.695-30.941-40.513-38.143
		c-17.818-7.201-37.091-10.728-54.207-19.469c-34.491-17.615-58.249-55.279-96.084-63.551
		c-39.651-8.67-79.066,18.491-119.607,16.537c-26.612-1.283-51.309-15.036-77.866-17.178c-21.49-1.734-43.533,4.54-60.889,17.33
		c-23.887,17.603-38.128,46.139-62.595,62.926c-29.261,20.076-71.57,22.465-91.263,51.985c-9.838,14.748-11.545,34.38-5.158,50.919
		s20.474,29.736,37.122,35.831c29.987,10.978,63.448-0.591,95.147,3.266c47.443,5.772,86.495,45.34,134.237,47.525
		c35.083,1.606,65.94-20.025,100.271-19.88c31.756,0.134,63.883,17.319,95.504,7.626
		C540.618,316.476,546.394,313.585,551.847,310.136z"/>
	<g>
		
			<circle style="fill:none;stroke:#333333;stroke-width:0.5;stroke-linecap:round;stroke-linejoin:round;stroke-miterlimit:10;" cx="243.857" cy="227.545" r="7.555"/>
		
			<circle style="fill:none;stroke:#333333;stroke-width:0.5;stroke-linecap:round;stroke-linejoin:round;stroke-miterlimit:10;" cx="643.878" cy="101.088" r="7.555"/>
		<path style="fill:#333333;" d="M430.38,87.184c0,1.19-0.965,2.155-2.155,2.155s-2.155-0.965-2.155-2.155
			c0-1.19,0.965-2.155,2.155-2.155S430.38,85.994,430.38,87.184z"/>
		<circle style="fill:#333333;" cx="98.781" cy="177.51" r="2.155"/>
		<path style="fill:#333333;" d="M656.474,213.351c0,1.19-0.965,2.155-2.155,2.155c-1.19,0-2.155-0.965-2.155-2.155
			s0.965-2.155,2.155-2.155C655.509,211.196,656.474,212.161,656.474,213.351z"/>
		<path style="fill:none;stroke:#333333;stroke-width:0.5;stroke-linecap:round;stroke-linejoin:round;stroke-miterlimit:10;" d="
			M452.796,287.774c0,1.935-1.568,3.503-3.503,3.503c-1.935,0-3.503-1.568-3.503-3.503c0-1.935,1.568-3.503,3.503-3.503
			C451.227,284.271,452.796,285.839,452.796,287.774z"/>
		<path style="fill:none;stroke:#333333;stroke-width:0.5;stroke-linecap:round;stroke-linejoin:round;stroke-miterlimit:10;" d="
			M297.236,90.228c0,1.935-1.568,3.503-3.503,3.503c-1.935,0-3.503-1.568-3.503-3.503c0-1.935,1.568-3.503,3.503-3.503
			C295.667,86.724,297.236,88.293,297.236,90.228z"/>
		<path style="fill:none;stroke:#333333;stroke-width:0.5;stroke-linecap:round;stroke-linejoin:round;stroke-miterlimit:10;" d="
			M66.212,239.743c0,1.935-1.568,3.503-3.503,3.503c-1.935,0-3.503-1.568-3.503-3.503c0-1.935,1.568-3.503,3.503-3.503
			C64.643,236.24,66.212,237.808,66.212,239.743z"/>
	</g>
	<g>
		<g>
			
				<line style="fill:none;stroke:#333333;stroke-width:0.5;stroke-linecap:round;stroke-linejoin:round;stroke-miterlimit:10;" x1="55.499" y1="354.114" x2="694.501" y2="354.114"/>
		</g>
		<path style="fill:none;stroke:#333333;stroke-width:0.5;stroke-linecap:round;stroke-linejoin:round;stroke-miterlimit:10;" d="
			M55.499,302.747c15.778-6.759,32.467-12.077,49.626-12.526c28.682-0.75,56.061,12.133,79.879,28.13
			c8.383,5.631,16.613,11.749,26.085,15.251c17.415,6.438,36.668,3.303,55.235,3.296c6.841-0.003,13.773,0.451,20.264,2.609
			c8.822,2.934,16.303,8.824,23.586,14.605"/>
		<path style="fill:none;stroke:#333333;stroke-width:0.5;stroke-linecap:round;stroke-linejoin:round;stroke-miterlimit:10;" d="
			M423.579,354.114c6.722-12.863,20.585-20.771,34.78-23.792c14.195-3.021,28.906-1.824,43.369-0.614
			c14.462,1.21,29.174,2.405,43.369-0.617c20.135-4.288,37.448-16.629,56.021-25.507c28.852-13.791,61.609-19.293,93.383-15.686"/>
	</g>
</g>
<g id="OBJECTS">
	<g>
		<ellipse style="opacity:0.05;" cx="169.373" cy="427.702" rx="57.381" ry="7.857"/>
		<g>
			<path style="fill:#38322E;" d="M138.784,184.542c-3.232,7.31-3.788,15.769-1.541,23.439c2.247,7.67,7.279,14.492,13.944,18.903
				c-1.287-3.891-0.169-8.165,1.436-11.936c1.605-3.771,3.711-7.388,4.499-11.41c0.79-4.03,0.189-8.243-1.173-12.117
				c-1.362-3.874-3.459-7.447-5.712-10.88c-1.214-1.85-4.778-6.64-7.522-4.475c-0.858,0.677-1.039,2.308-1.438,3.264
				C140.535,181.106,139.563,182.782,138.784,184.542z"/>
			<path style="fill:#6ABAD2;" d="M139.015,166.453c-0.811,0.07-1.659,0.374-2.116,1.048c-0.549,0.81-0.385,1.9-0.08,2.829
				c0.593,1.808,1.646,3.463,3.031,4.768c-1.966,0.579-2.8,3.253-1.804,5.044c0.996,1.791,3.327,2.565,5.328,2.121
				c-0.678,1.721,0.385,3.835,2.087,4.559c1.702,0.724,3.787,0.168,5.118-1.117c1.118,1.276,2.448,2.364,3.92,3.206
				c1.068,0.611,2.326,1.103,3.509,0.764c1.47-0.421,2.333-2.04,2.374-3.568c0.041-1.529-0.557-2.994-1.145-4.405
				c1.409,0.181,3.285,0.077,3.67-1.291c0.133-0.47,0.028-0.973-0.119-1.439c-0.553-1.744-1.692-3.247-2.971-4.555
				c-2.814-2.881-6.421-4.965-10.3-6.03c-1.834-0.504-3.642-0.579-5.509-0.825C142.296,167.336,140.779,166.301,139.015,166.453z"/>
			<g>
				<path style="fill:#6ABAD2;" d="M135.464,422.233c-0.93-0.35-1.671-1.055-2.458-1.661c-2.247-1.728-5.061-2.657-7.891-2.727
					c-3.553,1.712-7.059,3.397-8.11,4.548c-1.58,1.731-2.272,4.44,0.075,5.721c3.723,2.033,9.314,2.018,13.396,1.48
					c4.805-0.633,9.456-2.126,14.275-2.679c2.917-0.335,11.507,0.355,11.716-4.06c0.013-0.279-0.026-1.316-0.084-2.783
					c-5.935,1.289-11.972,2.109-18.037,2.42C137.375,422.543,136.373,422.576,135.464,422.233z"/>
				<path style="fill:#F2B27E;" d="M156.229,403.204c0.655-5.28,1.383-9.377,2.115-12.752c3.193-14.724,6.479-15.699,4.315-41.056
					c-0.467-5.471,5.922-33.254,6.397-40.001l-28.053-3.789c0.113,6.196,1.255,40.773,1.442,54.984
					c0.023,1.699-0.162,16.435-0.371,27.341c-0.082,4.289-0.169,7.986-0.248,10.064c-0.113,2.978-0.29,6.014-1.375,8.789
					c-1.221,3.124-4.57,4.756-7.21,6.632c0.498,0.935,1.654,1.513,2.736,1.794c3.513,0.913,7.231,0.333,10.771-0.466
					c3.164-0.714,6.286-1.609,9.354-2.661C156.015,408.531,156.002,405.029,156.229,403.204z"/>
				<path style="fill:#418899;" d="M135.977,415.21c-1.082-0.281-2.238-0.859-2.736-1.794c-0.134,0.095-0.274,0.188-0.404,0.285
					c-1.419,1.057-4.01,2.349-6.704,3.653c-0.339,0.164-0.679,0.328-1.019,0.492c2.83,0.07,5.645,0.999,7.891,2.727
					c0.787,0.605,1.529,1.311,2.458,1.661c0.909,0.342,1.911,0.31,2.881,0.26c6.066-0.311,12.102-1.131,18.037-2.42
					c-0.011-0.262-0.022-0.532-0.033-0.819c-0.081-2.008-0.183-4.602-0.247-7.17c-3.068,1.052-6.19,1.947-9.354,2.661
					C143.208,415.543,139.49,416.123,135.977,415.21z"/>
				<path style="fill:none;stroke:#333333;stroke-width:0.5;stroke-linecap:round;stroke-linejoin:round;stroke-miterlimit:10;" d="
					M146.607,350.395c1.581-1.324,2.85-3.017,3.679-4.905"/>
			</g>
			<g>
				<path style="fill:#6ABAD2;" d="M205.513,422.233c0.93-0.35,1.671-1.055,2.458-1.661c2.247-1.728,5.061-2.657,7.891-2.727
					c3.553,1.712,7.059,3.397,8.11,4.548c1.58,1.731,2.272,4.44-0.075,5.721c-3.723,2.033-9.314,2.018-13.396,1.48
					c-4.806-0.633-9.456-2.126-14.275-2.679c-2.917-0.335-11.507,0.355-11.716-4.06c-0.013-0.279,0.026-1.316,0.084-2.783
					c5.935,1.289,11.972,2.109,18.037,2.42C203.602,422.543,204.604,422.576,205.513,422.233z"/>
				<path style="fill:#F2B27E;" d="M184.748,403.204c-0.655-5.28-1.383-9.377-2.115-12.752c-3.193-14.724-6.479-15.699-4.315-41.056
					c0.467-5.471-5.922-33.254-6.397-40.001l28.053-3.789c-0.113,6.196-1.255,40.773-1.443,54.984
					c-0.023,1.699,0.162,16.435,0.371,27.341c0.082,4.289,0.169,7.986,0.248,10.064c0.113,2.978,0.29,6.014,1.375,8.789
					c1.221,3.124,4.57,4.756,7.21,6.632c-0.498,0.935-1.654,1.513-2.736,1.794c-3.513,0.913-7.231,0.333-10.771-0.466
					c-3.164-0.714-6.286-1.609-9.354-2.661C184.962,408.531,184.975,405.029,184.748,403.204z"/>
				<path style="fill:#418899;" d="M205,415.21c1.082-0.281,2.238-0.859,2.736-1.794c0.134,0.095,0.274,0.188,0.404,0.285
					c1.419,1.057,4.01,2.349,6.704,3.653c0.339,0.164,0.679,0.328,1.019,0.492c-2.83,0.07-5.645,0.999-7.891,2.727
					c-0.787,0.605-1.529,1.311-2.458,1.661c-0.909,0.342-1.911,0.31-2.881,0.26c-6.065-0.311-12.102-1.131-18.037-2.42
					c0.01-0.262,0.021-0.532,0.033-0.819c0.081-2.008,0.183-4.602,0.247-7.17c3.068,1.052,6.19,1.947,9.354,2.661
					C197.768,415.543,201.487,416.123,205,415.21z"/>
				<path style="fill:none;stroke:#333333;stroke-width:0.5;stroke-linecap:round;stroke-linejoin:round;stroke-miterlimit:10;" d="
					M194.37,350.395c-1.581-1.324-2.85-3.017-3.679-4.905"/>
			</g>
			<path style="fill:#AD7344;" d="M130.569,282.902l-5.397-1.057c1.565-7.987,15.668-78.336,28.75-89.188l3.512,4.234
				c-2.711,2.248-8.624,11.257-17.763,46.328C134.389,263.486,130.606,282.711,130.569,282.902z"/>
			<path style="fill:#F1CC4B;" d="M168.809,191.07c-20.569,1.645-30.932,4.285-34.672,11.623
				c-3.74,7.338,11.195,41.719,11.195,41.719l-0.465,32.202c0,0,6.22,8.79,23.943,8.79s28.883-6.868,28.883-6.868l-5.862-40.764
				l2.125-43.755C193.956,194.019,189.097,189.448,168.809,191.07z"/>
			<path style="fill:#F2B27E;" d="M156.285,195.543c-0.147,2.872,10.07,6.812,15.653,7.097c5.583,0.285,6.684-3.077,6.83-5.949
				c0.147-2.872-4.824-4.359-11.032-4.676C161.527,191.699,156.432,192.671,156.285,195.543z"/>
			<g>
				<g>
					<path style="fill:#F2B27E;" d="M244.383,113.858c-0.424-0.715-1.292-1.139-2.117-1.034c0.225-0.745-0.016-1.61-0.594-2.132
						c-0.578-0.521-1.463-0.672-2.181-0.372c-0.028-0.939-0.63-1.839-1.488-2.222c-0.858-0.384-1.93-0.232-2.648,0.374
						c0.198-0.932-0.543-1.891-1.463-2.137c-0.92-0.247-1.92,0.102-2.662,0.699c-0.742,0.597-1.268,1.417-1.75,2.238
						c-0.756,1.288-1.448,2.647-1.703,4.119c-0.218,1.258-0.108,2.548,0.002,3.82c0.2,2.301,0.421,4.599,0.635,6.897
						c0.095,1.02-0.158,4.339-0.29,4.94c-1.826,3.022-4.47,7.574-5.098,8.654c-4.269,7.347-8.676,15.557-12.341,23.228
						c-6.678,13.98-22.192,26.294-22.192,26.294l13.561,14.28c0,0,11.65-16.199,20.409-33.389
						c3.967-7.785,13.655-33.927,13.655-33.927c1.615-2.411,3.689-4.583,5.116-7.108c1.49-2.636,1.053-5.635,2.34-8.328
						c0.123-0.257,0.258-0.524,0.246-0.809c-0.01-0.251-0.135-0.49-0.123-0.74c0.018-0.389,0.348-0.678,0.577-0.994
						C244.763,115.538,244.807,114.573,244.383,113.858z"/>
					<g>
						
							<path style="fill:none;stroke:#000000;stroke-width:0.4174;stroke-linecap:round;stroke-linejoin:round;stroke-miterlimit:10;" d="
							M243.856,116.758c-0.581,0.698-1.545,1.643-2.328,2.104c-0.783,0.461-1.695,0.731-2.6,0.656
							c-0.255-0.021-0.516-0.073-0.727-0.217c-0.211-0.144-0.363-0.398-0.324-0.651"/>
						
							<path style="fill:none;stroke:#000000;stroke-width:0.4174;stroke-linecap:round;stroke-linejoin:round;stroke-miterlimit:10;" d="
							M242.171,112.886c-0.519,1.07-1.038,2.141-1.558,3.211c-0.197,0.407-0.399,0.82-0.704,1.153
							c-0.228,0.25-0.507,0.447-0.789,0.634c-0.571,0.379-1.163,0.726-1.772,1.039c-0.262,0.135-0.551,0.267-0.842,0.214
							c-0.214-0.039-0.428-0.229-0.524-0.423"/>
						
							<path style="fill:none;stroke:#000000;stroke-width:0.4174;stroke-linecap:round;stroke-linejoin:round;stroke-miterlimit:10;" d="
							M228.473,114.112c0.173-0.621,0.661-1.098,1.141-1.528c1.403-1.26,2.907-2.408,4.493-3.429
							c0.339-0.218,0.701-0.437,1.104-0.465c0.606-0.042,1.148,0.354,1.609,0.75c0.605,0.52,1.203,1.089,1.959,1.346
							c0.389,0.132,0.802,0.174,1.198,0.285c0.395,0.11,0.792,0.307,1.009,0.656c0.288,0.463,0.176,1.098-0.157,1.53
							c-0.333,0.432-0.846,0.69-1.366,0.855c-0.81,0.257-1.682,0.319-2.521,0.179c-0.345-0.058-1.108-0.149-1.142-0.135
							c-0.029,0.012-1.202,0.91-1.213,0.949c-0.024,0.084,0.03,0.168,0.08,0.24c1.297,1.855,1.664,4.215,1.268,6.443"/>
						
							<path style="fill:none;stroke:#000000;stroke-width:0.4174;stroke-linecap:round;stroke-linejoin:round;stroke-miterlimit:10;" d="
							M237.65,114.358c0,0-0.332,0.632-0.556,0.945c-0.214,0.299-0.494,0.543-0.771,0.784c-0.287,0.25-0.567,0.489-0.854,0.739"/>
						
							<path style="fill:none;stroke:#000000;stroke-width:0.4174;stroke-linecap:round;stroke-linejoin:round;stroke-miterlimit:10;" d="
							M231.393,108.518c-0.001,0.041-0.012,0.081-0.024,0.121c-0.165,0.558-0.331,1.117-0.496,1.675
							c-0.096,0.324-0.192,0.648-0.324,0.959c-0.09,0.213-0.199,0.426-0.208,0.656"/>
					</g>
				</g>
				<path style="fill:#F1CC4B;" d="M179.063,190.752l18.63-14.266c0,0,4.539,1.659,8.605,10.96
					c4.066,9.301,3.008,16.731,3.008,16.731l-16.233,8.032L179.063,190.752z"/>
			</g>
			<g>
				<path style="fill:#38322E;" d="M201.856,148.151c1.095-3.104,2.042-6.344,1.858-9.63c-0.239-4.26-2.407-8.265-5.431-11.276
					c-3.024-3.01-6.853-5.102-10.826-6.659c-8.287-3.248-17.425-4.294-26.232-3.005c-2.466,0.361-4.965,0.926-7.06,2.276
					c-2.278,1.469-3.95,3.849-4.56,6.49c-3.056-0.385-6.133,1.13-8.22,3.395c-2.087,2.265-3.307,5.197-4.157,8.157
					c-3.804,13.254-0.524,28.261,8.237,38.909c1.435,1.745,3.016,3.387,4.84,4.719c4.796,3.5,11.152,4.99,16.838,3.508
					c5.907-1.539,11.28-4.445,15.963-8.347C192.215,169.098,197.954,159.211,201.856,148.151z"/>
				
					<line style="fill:none;stroke:#333333;stroke-width:0.5;stroke-linecap:round;stroke-linejoin:round;stroke-miterlimit:10;" x1="191.434" y1="158.158" x2="200.542" y2="160.609"/>
				<g>
					<defs>
						<path id="XMLID_13_" d="M159.662,192.47c0,3.113,1.421,5.949,8.607,5.949c7.186,0,8.607-2.736,8.607-5.949
							c0-3.213,1.057-15.528,1.057-15.528h-19.328C158.605,176.942,159.662,189.357,159.662,192.47z"/>
					</defs>
					<use xlink:href="#XMLID_13_"  style="overflow:visible;fill:#F2B27E;"/>
					<clipPath id="XMLID_00000162346982894004946300000015501524830248361901_">
						<use xlink:href="#XMLID_13_"  style="overflow:visible;"/>
					</clipPath>
					
						<ellipse style="opacity:0.7;clip-path:url(#XMLID_00000162346982894004946300000015501524830248361901_);fill:#F2B27E;" cx="173.252" cy="174.207" rx="16.531" ry="15.83"/>
				</g>
				<path style="fill:#F2B27E;" d="M145.649,155.095c-0.101-7.728,2.008-15.511,6.334-21.466c4.162-5.728,10.554-9.114,18.139-9.324
					c7.585-0.21,13.463,2.183,18.16,6.76c5.177,5.045,7.718,12.545,7.109,19.747c-0.267,3.159-1.097,6.257-1.256,9.424
					c-0.288,5.729,1.602,11.678-0.287,17.094c-1.629,4.671-5.931,8.079-10.656,9.542c-4.725,1.464-9.831,1.196-14.687,0.254
					c-6.881-1.336-12.603-6.225-16.652-11.853C147.815,169.659,145.744,162.402,145.649,155.095z"/>
				<g>
					<path style="fill:#E89777;" d="M157.157,169.126c0,2.796,2.266,5.062,5.063,5.062c2.796,0,5.062-2.266,5.062-5.062
						c0-2.796-2.266-5.062-5.062-5.062C159.424,164.064,157.157,166.33,157.157,169.126z"/>
					<path style="fill:#E89777;" d="M183.831,169.126c0,2.796,2.266,5.062,5.062,5.062c2.796,0,5.063-2.266,5.063-5.062
						c0-2.796-2.266-5.062-5.063-5.062C186.098,164.064,183.831,166.33,183.831,169.126z"/>
				</g>
				<g>
					<g>
						<g>
							
								<path style="fill:none;stroke:#333333;stroke-width:0.5;stroke-linecap:round;stroke-linejoin:round;stroke-miterlimit:10;" d="
								M176.358,180.099c-1.558,0.1-3.143-0.154-4.453-0.715"/>
							<g>
								<defs>
									<path id="XMLID_12_" d="M169.351,173.584c-0.399,2.156,1.919,4.239,5.178,4.653s6.224-0.999,6.623-3.156
										c0.399-2.156-2.307-2.142-5.566-2.556C172.327,172.112,169.75,171.428,169.351,173.584z"/>
								</defs>
								<use xlink:href="#XMLID_12_"  style="overflow:visible;fill:#C9413A;"/>
								<clipPath id="XMLID_00000057134107179629261650000000757779570460406442_">
									<use xlink:href="#XMLID_12_"  style="overflow:visible;"/>
								</clipPath>
								<path style="clip-path:url(#XMLID_00000057134107179629261650000000757779570460406442_);fill:#F96C4B;" d="
									M164.174,175.355c-0.867,2.183,1.838,4.928,6.043,6.131c4.205,1.203,8.317,0.408,9.185-1.775
									c0.868-2.183-1.838-4.928-6.043-6.131C169.154,172.378,165.042,173.172,164.174,175.355z"/>
								<path style="clip-path:url(#XMLID_00000057134107179629261650000000757779570460406442_);fill:#FFFFFF;" d="M169.644,171.77
									c-0.259,1.469,2.285,2.292,5.533,2.682c3.248,0.391,5.864,0.516,6.123-0.953c0.259-1.469-2.279-2.041-5.527-2.432
									C172.526,170.677,169.903,170.301,169.644,171.77z"/>
								
									<use xlink:href="#XMLID_12_"  style="overflow:visible;fill:none;stroke:#333333;stroke-width:0.5;stroke-linecap:round;stroke-linejoin:round;stroke-miterlimit:10;"/>
							</g>
						</g>
					</g>
					<g>
						
							<path style="fill:none;stroke:#333333;stroke-width:0.5;stroke-linecap:round;stroke-linejoin:round;stroke-miterlimit:10;" d="
							M179.513,155.195c-0.298,2.757,0.179,5.594,1.36,8.104c0.652,1.385,1.537,2.771,1.448,4.299
							c-0.06,1.034-0.602,2.03-1.436,2.643c-0.835,0.613-1.947,0.832-2.952,0.58"/>
						<g>
							
								<path style="fill:none;stroke:#333333;stroke-width:0.5;stroke-linecap:round;stroke-linejoin:round;stroke-miterlimit:10;" d="
								M172.512,162.615c0,0-2.889-3.632-7.764-2.007"/>
							
								<path style="fill:none;stroke:#333333;stroke-width:0.5;stroke-linecap:round;stroke-linejoin:round;stroke-miterlimit:10;" d="
								M173.486,161.725c0,0-0.685-1.304-1.764-1.799"/>
						</g>
					</g>
					<path style="fill:#38322E;" d="M182.328,160.609c0,1.353,1.097,2.45,2.45,2.45c1.353,0,2.45-1.097,2.45-2.45
						c0-1.353-1.097-2.45-2.45-2.45C183.425,158.158,182.328,159.255,182.328,160.609z"/>
				</g>
				<g>
					<path style="fill:#38322E;" d="M167.697,148.055c3.234-1.17,5.518,0.653,5.788,2.445c0,0-2.009-0.663-5.063-0.202
						c-3.055,0.462-5.533,1.802-5.533,1.802S164.462,149.226,167.697,148.055z"/>
					<path style="fill:#38322E;" d="M187.023,148.055c-3.234-1.17-5.518,0.653-5.789,2.445c0,0,2.009-0.663,5.063-0.202
						c3.055,0.462,5.533,1.802,5.533,1.802S190.258,149.226,187.023,148.055z"/>
				</g>
				<path style="fill:#38322E;" d="M166.072,145.732c6.201-3.356,12.817-6.619,16.944-12.336
					c-2.661,5.895-7.434,10.809-13.249,13.641c6.554,1.889,13.781,3.065,20.046,0.367c3.545-1.526,6.782-4.783,6.612-8.639
					c-0.081-1.833-0.921-3.552-1.944-5.074c-3.685-5.48-9.794-8.944-16.131-10.803c-3.309-0.97-6.76-1.557-10.205-1.379
					c-6.496,0.335-12.795,3.518-16.918,8.55c-2.765,3.374-4.542,7.476-5.614,11.704c-1.401,5.526-2.166,13.912,1.238,18.957
					c2.132,3.16,3.669-1.359,4.646-2.992c1.496-2.5,3.555-4.611,5.818-6.426C160.019,149.133,163.031,147.378,166.072,145.732z"/>
				<g>
					
						<ellipse style="fill:none;stroke:#333333;stroke-width:0.5;stroke-linecap:round;stroke-linejoin:round;stroke-miterlimit:10;" cx="167.905" cy="159.018" rx="10.028" ry="8.907"/>
					
						<ellipse style="fill:none;stroke:#333333;stroke-width:0.5;stroke-linecap:round;stroke-linejoin:round;stroke-miterlimit:10;" cx="190.679" cy="159.018" rx="10.028" ry="8.907"/>
					
						<path style="fill:none;stroke:#333333;stroke-width:0.5;stroke-linecap:round;stroke-linejoin:round;stroke-miterlimit:10;" d="
						M177.902,159.696c0,0,1.55-1.179,2.78,0"/>
					
						<line style="fill:none;stroke:#333333;stroke-width:0.5;stroke-linecap:round;stroke-linejoin:round;stroke-miterlimit:10;" x1="148.932" y1="158.158" x2="158.04" y2="160.609"/>
				</g>
				<g>
					<path style="fill:#F2B27E;" d="M141.311,163.971c1.943,5.225,6.706,8.348,9.094,7.186c1.854-0.902,2.146-4.381,1.066-8.555
						c-1.08-4.174-4.199-9.484-7.346-8.691C140.977,154.704,139.368,158.745,141.311,163.971z"/>
					<path style="opacity:0.7;fill:#F2B27E;" d="M143.976,156.857c1.56,0.633,2.791,1.899,3.717,3.305
						c1.244,1.889,2.013,4.088,2.219,6.341c-0.502-0.37-1.19-0.472-1.778-0.263c-0.632,0.224-0.916,0.708-1.225,1.251
						c-1.391-0.581-2.604-2.604-3.238-3.898c-0.743-1.516-1.146-3.202-1.129-4.892C142.552,157.818,142.796,156.378,143.976,156.857
						z"/>
				</g>
			</g>
			<path style="fill:#DE582A;" d="M145.645,194.599c0,0,6.778,27.628,5.754,33.197c-1.023,5.569-8.857,11.454-8.857,11.454
				s0.487,6.978,0.61,17.055c0.123,10.077-9.616,74.299-9.616,74.299s13.344,11.576,37.027,11.576c23.683,0,33.618-7.24,33.618-7.24
				s-9.249-71.589-8.624-86.464s-2.793-29.893-2.793-29.893l-10.435-30.331l-5.399,2.471c0,0,7.611,24.655,6.505,27.275
				c-1.106,2.62-19.188,4.042-21.214,2.021c-2.026-2.021-10.122-26.943-10.122-26.943s-1.647-0.033-3.192,0.336
				C147.36,193.781,145.645,194.599,145.645,194.599z"/>
			<path style="fill:#BF300C;" d="M178.473,228.824c-5.505,0.631-10.939-0.245-10.939-0.245s3.994,13.029,13.39,11.953
				c9.396-1.076,7.181-14.309,7.181-14.309S183.978,228.194,178.473,228.824z"/>
			<g>
				<path style="fill:#AD7344;" d="M176,286.52l-5.028-2.23c15.338-34.596,6.059-92.965,5.957-93.568l5.399-2.471
					c0.026,0.155,2.055,15.527,2.643,35.229C185.764,250.094,182.746,271.304,176,286.52z"/>
				<g>
					<g>
						<path style="fill:#CC9864;" d="M161.83,297.646c-4.741,1.736-8.085,5.887-11.761,9.348c-2.161,2.034-4.581,3.916-7.426,4.757
							c-1.856,0.549-3.821,0.631-5.754,0.544c-7.407-0.335-14.744-3.226-20.11-8.343c-3.518-3.354-6.125-7.675-7.452-12.339
							c-3.777,10.997-3.054,23.686,1.705,28.194c7.311,6.924,50.679,15.7,57.038,9.307c3.992-4.013,7.621-16.552,8.794-27.434
							C173.225,297.589,167.022,295.745,161.83,297.646z"/>
						<path style="fill:#AD7344;" d="M136.888,312.295c1.934,0.087,3.898,0.005,5.754-0.544c2.846-0.841,5.266-2.723,7.426-4.757
							c3.676-3.461,7.02-7.611,11.761-9.348c5.192-1.901,11.394-0.057,15.033,4.033c0.695-6.45,0.528-12.319-0.94-15.483
							c-3.946-8.502-43.124-19.034-56.562-9.295c-4.691,3.4-8.009,8.813-10.035,14.711c1.327,4.665,3.935,8.985,7.452,12.339
							C122.145,309.069,129.481,311.961,136.888,312.295z"/>
					</g>
					<path style="fill:#CC9864;" d="M169.268,307.05c-3.654-0.599-5.863,0.179-5.863,0.179s-6.45,15.912,0.558,17.955
						c7.008,2.043,9.564-15.621,9.564-15.621S172.922,307.649,169.268,307.05z"/>
					<path style="fill:#F1CC4B;" d="M131.594,310.983c0,2.297-1.285,4.16-2.87,4.16c-1.585,0-2.87-1.862-2.87-4.16
						s1.285-4.159,2.87-4.159C130.309,306.823,131.594,308.685,131.594,310.983z"/>
				</g>
			</g>
			<g>
				<g>
					<g>
						<g>
							<path style="fill:#F2B27E;" d="M110.7,263.425c-0.104,0.412-0.207,0.825-0.309,1.238c-0.937,3.806-1.806,7.637-3.568,11.165
								c-1.602,3.21-4.187,5.661-6.385,8.461c-1.198,1.525-2.404,3.064-3.271,4.798c-0.776,1.551-1.446,3.069-1.856,4.772
								c-0.484,2.015-0.969,4.029-1.453,6.044c-0.152,0.633-0.306,1.279-0.253,1.928c0.054,0.649,0.349,1.313,0.909,1.645
								c-0.079,0.717-0.157,1.447-0.017,2.154c0.141,0.707,0.538,1.401,1.185,1.719c0.137,0.067,0.289,0.121,0.39,0.237
								c0.086,0.099,0.124,0.23,0.186,0.346c0.225,0.418,0.761,0.589,1.23,0.517c0.469-0.072,0.883-0.337,1.27-0.612
								c0.241,0.313,0.718,0.337,1.086,0.195c0.501-0.193,0.881-0.624,1.123-1.103c0.242-0.479,0.362-1.009,0.481-1.532
								c0.232-1.018,0.465-2.036,0.701-3.053c0.184-0.794,0.37-1.592,0.68-2.346c0.597-1.458,1.625-2.682,2.735-3.779
								c0.52-0.513,1.085-0.984,1.555-1.535c0.284-0.332,0.665-0.797,1.179-0.671c0.591,0.146,0.754,0.908,0.728,1.516
								c-0.106,2.465-1.385,4.776-1.425,7.243c-0.006,0.382,0.043,0.815,0.348,1.046c0.523,0.395,1.233-0.125,1.675-0.61
								c1.568-1.725,3.167-3.497,4.057-5.651c1.526-3.696,1.877-8.038,2.137-11.989c0.223-3.396,0.088-6.644,1.282-9.899
								c1.217-3.319,3.129-6.328,4.846-9.399c3.993-7.146,6.216-14.96,9.357-22.409c1.793-4.251,5.94-7.912,4.458-12.702
								c-0.477-1.541-1.087-3.068-2.081-4.339c-0.993-1.271-2.414-2.271-4.014-2.479c-5.258-0.683-7.201,7.531-8.796,11.092
								C116.808,244.498,113.141,253.779,110.7,263.425z"/>
							<g>
								
									<path style="fill:none;stroke:#333333;stroke-width:0.5;stroke-linecap:round;stroke-linejoin:round;stroke-miterlimit:10;" d="
									M98.781,307.579c0.053-3.198,0.545-6.389,1.456-9.455"/>
								
									<path style="fill:none;stroke:#333333;stroke-width:0.5;stroke-linecap:round;stroke-linejoin:round;stroke-miterlimit:10;" d="
									M96.098,307.229c0.291-3.531,1.022-7.025,2.169-10.377"/>
								
									<path style="fill:none;stroke:#333333;stroke-width:0.5;stroke-linecap:round;stroke-linejoin:round;stroke-miterlimit:10;" d="
									M94.774,303.119c0.39-2.718,1.009-5.403,1.848-8.017"/>
							</g>
						</g>
					</g>
				</g>
				<path style="fill:#F1CC4B;" d="M137.705,198.419c-10.609,6.497-17.239,32.088-17.239,32.088s2.936,6.851,12.506,8.469
					c9.57,1.618,14.642-5.568,14.642-5.568s2.724-7.598,1.293-18.006S145.028,193.934,137.705,198.419z"/>
			</g>
			<path style="fill:#38322E;" d="M158.736,191.088c-0.445-0.467-0.928-0.896-1.424-1.311c-0.969,0.035-1.952-0.372-2.813-0.865
				c-1.472-0.842-2.803-1.931-3.92-3.206c-0.947,0.914-2.274,1.448-3.575,1.426c1.265,2.133,2.928,4.068,4.39,6.019
				c5.093,6.794,8.572,15.31,7.298,23.705c2.312-3.99,4.051-8.407,4.311-13.011S161.917,194.428,158.736,191.088z"/>
		</g>
		<g>
			<path style="fill:#DBB53E;" d="M201.036,96.48c1.414-1.458,7.787,2.099,7.725,3.526c-0.062,1.427-9.667,16.454-10.97,16.357
				C196.487,116.267,199.623,97.938,201.036,96.48z"/>
			<path style="fill:#DBB53E;" d="M216.133,106.253c2.024-0.17,4.489,6.701,3.505,7.735c-0.985,1.034-18.1,6.047-19.019,5.117
				C199.699,118.175,214.109,106.422,216.133,106.253z"/>
		</g>
	</g>
	<g>
		<ellipse style="opacity:0.05;" cx="343.745" cy="427.702" rx="100.831" ry="7.857"/>
		<g>
			<path style="fill:#564C47;" d="M373.087,199.517c-2.357,0.329-4.594,1.276-6.645,2.484c-6.467,3.811-11.065,10.077-15.189,16.35
				c-7.522,11.439-14.185,23.708-17.096,37.085c-0.322,1.478-0.597,3.002-0.357,4.495c0.246,1.526,1.02,2.922,1.958,4.151
				c3.72,4.871,9.937,7.278,16.035,7.892c2.339,0.235,4.801,0.22,6.909-0.818c2.376-1.17,3.967-3.461,5.418-5.677
				c7.687-11.741,14.457-24.107,19.776-37.093c2.116-5.165,4.02-10.516,4.355-16.088c0.196-3.259-0.001-9.353-3.373-11.136
				C381.839,199.555,376.394,199.056,373.087,199.517z"/>
			<g>
				<g>
					<path style="fill:#DBB53E;" d="M425.367,427.874c0.983-0.001,2.081-0.048,2.768-0.751c0.493-0.505,0.656-1.234,0.86-1.909
						c0.858-2.83,2.893-5.241,5.455-6.705c-3.477-0.922-7.118-1.861-9.034-2.786c-1.438-0.694-2.824-1.317-4.088-2.096
						c-1.579,2.406-1.953,5.648-0.65,8.238c-5.827,0.484-11.714,0.22-17.475-0.772c0.241,2.622,0.428,5.04,0.566,6.553
						c0.987,0.237,2.058,0.254,3.082,0.253C413.023,427.89,419.195,427.882,425.367,427.874z"/>
					<path style="fill:#F1CC4B;" d="M442.607,421.264c-1.176-0.877-4.58-1.807-8.157-2.755c-2.562,1.464-4.597,3.875-5.455,6.705
						c-0.205,0.675-0.367,1.405-0.86,1.909c-0.687,0.703-1.784,0.75-2.768,0.751c-6.172,0.008-12.344,0.016-18.516,0.024
						c-1.024,0.001-2.095-0.016-3.082-0.253c0.073,0.8,0.132,1.35,0.177,1.537c1.041,4.296,9.344,1.993,12.272,1.77
						c4.837-0.369,9.686,0.218,14.524-0.069c4.11-0.244,9.603-1.288,12.875-3.988C445.678,425.194,444.486,422.664,442.607,421.264z
						"/>
					<path style="fill:#F2B27E;" d="M416.098,406.782c-0.588-1.618-1.008-3.31-1.399-4.989c-1.668-7.177-5.106-34.699-5.523-37.029
						c-2.504-13.991-4.683-48.783-5.744-54.889l-26.829,9.027c1.743,6.536,10.031,33.233,10.608,38.694
						c3.229,30.595,5.455,25.118,13.904,50.74c2.419,0.722,5.049,0.824,7.565,0.472
						C411.227,408.452,413.684,407.682,416.098,406.782z"/>
					<path style="fill:#605651;" d="M421.328,413.627c-1.389-0.856-2.631-1.903-3.616-3.463c-0.67-1.062-1.185-2.203-1.614-3.381
						c-2.415,0.9-4.872,1.67-7.418,2.026c-2.516,0.352-5.147,0.25-7.565-0.472c0.142,0.431,0.281,0.847,0.427,1.296
						c0.712,2.193,1.26,7.102,1.661,11.461c5.762,0.992,11.648,1.256,17.475,0.772C419.375,419.275,419.749,416.033,421.328,413.627
						z"/>
				</g>
				<path style="fill:none;stroke:#333333;stroke-width:0.5;stroke-linecap:round;stroke-linejoin:round;stroke-miterlimit:10;" d="
					M402.595,359.355c0.558,1.093,1.445,2.015,2.515,2.615"/>
			</g>
			<g>
				<g>
					<path style="fill:#F1CC4B;" d="M242.914,341.743c1.859-5.671,4.647-10.985,7.423-16.268c2.296-4.37,4.711-8.857,8.239-12.239
						c-0.876-0.421-1.482-0.703-1.688-0.763c-4.244-1.235-6.38,7.113-7.643,9.763c-2.088,4.379-5.01,8.292-7.168,12.632
						c-1.834,3.687-3.663,8.97-2.949,13.151c0.45,2.635,3.237,2.86,5.387,1.928c1.134-0.492,3.089-2.339,5.232-4.481
						c-0.565-0.766-1.179-1.49-1.903-2.108C246.485,342.2,244.674,341.438,242.914,341.743z"/>
					<path style="fill:#F2B27E;" d="M331.301,302.332c-3.296,5.907-20.914,26.377-20.914,26.377s-4.807-4.39-35.347-8.59
						c-0.274-0.038-0.579-0.099-0.913-0.181c-2.125,1.893-3.761,4.337-4.672,7.035c-0.753,2.233-1.005,4.629-0.761,6.972
						c2.234,0.212,4.437,0.838,6.596,1.488c7.056,2.126,25.75,12.672,40.034,13.586c14.284,0.915,38.042-29.38,41.528-34.504
						L331.301,302.332z"/>
					<path style="fill:#DBB53E;" d="M260.578,331.659c-1.086-0.71-2.371-1.034-3.63-1.347c1.036-4.208,2.968-8.194,5.629-11.614
						c0.681-0.875,1.428-1.721,2.256-2.462c-2.457-1.144-4.755-2.278-6.257-3c-3.528,3.382-5.943,7.869-8.239,12.239
						c-2.775,5.283-5.564,10.597-7.423,16.268c1.76-0.305,3.57,0.457,4.929,1.617c0.723,0.618,1.337,1.342,1.903,2.108
						c2.874-2.872,6.089-6.276,8.129-7.673c1.576-1.078,3.028-2.139,4.632-2.89c0.001-0.02,0.006-0.039,0.007-0.059
						C262.532,333.549,261.664,332.369,260.578,331.659z"/>
					<path style="fill:#605651;" d="M269.456,326.972c0.91-2.698,2.547-5.141,4.672-7.035c-2.314-0.571-5.95-2.144-9.295-3.701
						c-0.827,0.741-1.575,1.587-2.256,2.462c-2.662,3.42-4.593,7.406-5.629,11.614c1.259,0.313,2.545,0.637,3.63,1.347
						c1.086,0.71,1.954,1.89,1.936,3.187c0,0.02-0.006,0.039-0.007,0.059c1.212-0.567,2.509-0.962,4.024-1.026
						c0.724-0.03,1.445-0.003,2.163,0.065C268.451,331.601,268.703,329.205,269.456,326.972z"/>
				</g>
				<path style="fill:none;stroke:#333333;stroke-width:0.5;stroke-linecap:round;stroke-linejoin:round;stroke-miterlimit:10;" d="
					M312.644,346.947c0.449-1.075,0.897-2.149,1.346-3.224"/>
			</g>
			<g>
				<path style="fill:#6ABAD2;" d="M404.741,295.064c-2.146-10.65-8.39-30.743-8.39-30.743l-28.166-1.239l-17.838,1.239
					c0,0-8.656,8.616-12.896,15.928s-16.279,28.18-20.543,34.787c-4.264,6.607-6.264,5.466-7.269,8.058
					c-1.005,2.592,1.567,13.957,9.132,20.629c7.565,6.672,18.401,8.866,22.949,5.316c4.548-3.549,25.361-32.803,25.361-32.803
					l0.076-0.346c0,0,6.407,14.561,7.086,22.08c0.679,7.519,2.36,20.054,2.36,20.054s12.34,5.845,22.19,3.534
					c9.85-2.31,12.542-8.619,12.542-8.619S406.887,305.714,404.741,295.064z"/>
				<g>
					
						<path style="fill:none;stroke:#333333;stroke-width:0.5;stroke-linecap:round;stroke-linejoin:round;stroke-miterlimit:10;" d="
						M311.456,331.875c1.476,0.752,3.321,0.122,4.593-0.939c1.272-1.061,2.169-2.496,3.311-3.696
						c1.138-1.195,2.51-2.146,3.656-3.333c1.169-1.21,2.081-2.641,2.95-4.081c10.381-17.215,15.734-37.364,28.024-53.273"/>
					
						<path style="fill:none;stroke:#333333;stroke-width:0.5;stroke-linecap:round;stroke-linejoin:round;stroke-miterlimit:10;" d="
						M340.39,290.89c4.796-1.319,9.134-4.048,12.745-7.469c3.611-3.42,6.526-7.519,9.007-11.83"/>
					
						<path style="fill:none;stroke:#333333;stroke-width:0.5;stroke-linecap:round;stroke-linejoin:round;stroke-miterlimit:10;" d="
						M367.301,314.926c7.535-5.365,15.449-10.197,23.664-14.448"/>
					
						<path style="fill:none;stroke:#333333;stroke-width:0.5;stroke-linecap:round;stroke-linejoin:round;stroke-miterlimit:10;" d="
						M369.339,314.458c6.965-1.574,13.945-3.088,20.936-4.54"/>
					
						<path style="fill:none;stroke:#333333;stroke-width:0.5;stroke-linecap:round;stroke-linejoin:round;stroke-miterlimit:10;" d="
						M371.152,312.217c3.513-9.642,5.42-19.868,5.617-30.128"/>
					
						<path style="fill:none;stroke:#333333;stroke-width:0.5;stroke-linecap:round;stroke-linejoin:round;stroke-miterlimit:10;" d="
						M378.941,307.246c3.968-10.333,3.938-21.237,4.025-32.306"/>
					
						<path style="fill:none;stroke:#333333;stroke-width:0.5;stroke-linecap:round;stroke-linejoin:round;stroke-miterlimit:10;" d="
						M372.545,311.527c-0.295,0.629-0.038,1.462,0.559,1.816c0.282,0.167,0.645,0.258,0.796,0.549
						c0.135,0.261,0.042,0.574-0.01,0.863c-0.25,1.369,0.482,2.701,1.121,3.937c1.356,2.625,2.402,5.41,3.108,8.279
						c0.809,3.289,1.171,6.67,1.53,10.038c0.819,7.68,1.637,15.359,2.456,23.039"/>
					
						<path style="fill:none;stroke:#333333;stroke-width:0.5;stroke-linecap:round;stroke-linejoin:round;stroke-miterlimit:10;" d="
						M312.935,319.329c-0.294,7.832,3.497,15.618,9.588,20.55c6.091,4.932,14.291,7.026,22.067,6.044"/>
					
						<path style="fill:none;stroke:#333333;stroke-width:0.5;stroke-linecap:round;stroke-linejoin:round;stroke-miterlimit:10;" d="
						M376.243,354.072c8.262,3.914,18.11,4.998,26.615,1.645c3.352-1.321,6.638-3.535,7.877-6.918"/>
				</g>
				<path style="fill:#418899;" d="M333.517,309.61c4.674,3.987,6.678,7.189,6.678,7.189s-9.273,18.715-18.882,11.689
					s5.448-22.266,5.448-22.266S328.844,305.623,333.517,309.61z"/>
			</g>
			<g>
				<path style="fill:#F2B27E;" d="M477.225,241.003c0.474-0.326,1.014-0.595,1.49-0.331c0.353,0.196,0.507,0.625,0.547,1.026
					c0.107,1.056-0.381,2.108-1.108,2.881c-0.727,0.773-1.673,1.303-2.633,1.755c-0.332,0.156-0.693,0.328-0.858,0.656
					c-0.545,1.086,1.124,0.735,1.555,0.671c1.217-0.182,2.433-0.363,3.65-0.544c2.369-0.353,4.739-0.707,7.108-1.06
					c0.685-0.102,1.417-0.197,2.041,0.103c0.624,0.3,1.019,1.166,0.591,1.709c-0.219,0.278-0.58,0.395-0.92,0.497
					c-1.561,0.471-3.123,0.941-4.684,1.412c-0.806,0.243-4.482,1.477-4.482,1.477s1.859,0.136,2.55,0.198
					c1.533,0.139,7.749-0.051,8.449,0.688c1.565,1.654-2.129,2.198-2.893,2.339c-1.874,0.345-7.09,0.976-7.09,0.976
					s7.241,0.899,8.52,1.133c0.511,0.094,1.096,0.242,1.315,0.713c0.429,0.925-0.927,1.617-1.94,1.73
					c-2.852,0.319-7.063,0.548-9.933,0.574c1.548,0.901,4.439,1.746,5.987,2.647c0.583,0.339,1.258,0.929,0.994,1.549
					c-0.239,0.562-1.024,0.568-1.627,0.471c-2.609-0.421-5.453-0.794-7.959-1.611c-2.305-0.751-4.77-0.585-7.15-0.857
					c-2.012-0.23-3.988-0.772-5.836-1.602c-2.434-1.093-37.276-3.799-46.251-8.134c-8.497-4.105-22.89-22.829-24.852-33.596
					c-1.962-10.767,3.292-22.767,10.888-12.533c7.22,10.231,19.227,33.066,19.227,33.066c8.951-0.877,35.773,10.098,37.466,9.84
					c2.802-0.427,5.012-2.146,7.419-3.494c1.005-0.563,2.061-1.146,3.116-1.604c1.192-0.517,2.521-0.597,3.764-0.937
					c1.159-0.316,2.257-0.855,3.217-1.577C477.007,241.16,477.114,241.08,477.225,241.003z"/>
				<g>
					
						<path style="fill:none;stroke:#333333;stroke-width:0.5;stroke-linecap:round;stroke-linejoin:round;stroke-miterlimit:10;" d="
						M473.813,249.387c-0.815,1.094-1.653,2.185-2.693,3.068c-1.04,0.882-2.307,1.551-3.667,1.659"/>
					
						<path style="fill:none;stroke:#333333;stroke-width:0.5;stroke-linecap:round;stroke-linejoin:round;stroke-miterlimit:10;" d="
						M474.181,253.353c-0.403,1.865-0.806,3.729-1.21,5.594"/>
				</g>
			</g>
			<path style="fill:#F1CC4B;" d="M397.76,201.506c12.617,6.167,18.758,23.797,18.758,23.797s0.464,5.077-8.618,10.185
				c-9.082,5.108-17.842,1.899-17.842,1.899S385.143,195.338,397.76,201.506z"/>
			<g>
				<path style="fill:#F1CC4B;" d="M374.108,199.34c-9.644,0.524-19.885-1.607-26.899,2.631c-7.014,4.238-2.619,20.65-2.619,20.65
					s4.89,13.318,2.814,26.889c-2.075,13.571-9.459,27.105-9.459,27.105s21.922,16.046,41.004,16.046
					c19.083,0,24.178-10.288,24.178-10.288s-6.977-23.898-5.085-37.422c1.891-13.523,5.251-36.297,1.951-41.415
					C396.692,198.419,383.753,198.816,374.108,199.34z"/>
				<path style="fill:#F2B27E;" d="M361.853,202.572c-0.147,2.872,17.416,11.611,17.416,11.611s7.915-7.437,8.062-10.31
					c0.147-2.872-5.494-4.393-12.529-4.752C367.765,198.761,361.999,199.7,361.853,202.572z"/>
				<g>
					
						<path style="fill:none;stroke:#333333;stroke-width:0.5;stroke-linecap:round;stroke-linejoin:round;stroke-miterlimit:10;" d="
						M399.239,238.117c1.22-6.969,1.59-14.086,1.101-21.145"/>
					
						<path style="fill:none;stroke:#333333;stroke-width:0.5;stroke-linecap:round;stroke-linejoin:round;stroke-miterlimit:10;" d="
						M359.266,262.979c3.336,4.21,8.026,7.116,12.774,9.628c5.914,3.128,12.497,5.844,19.115,4.867"/>
					
						<path style="fill:none;stroke:#333333;stroke-width:0.5;stroke-linecap:round;stroke-linejoin:round;stroke-miterlimit:10;" d="
						M356.09,261.901c1.775,2.882,3.56,5.777,5.771,8.34c2.211,2.563,4.885,4.8,8.028,6.056"/>
				</g>
			</g>
			<g>
				<g>
					<path style="fill:#F2B27E;" d="M263.925,272.636c0.297-0.579,0.768-1.048,1.231-1.505c1.474-1.457,2.947-2.914,4.421-4.371
						c1.246-1.231,2.615-2.168,4.092-3.077c1.651-1.016,3.487-1.688,5.309-2.353c3.343-1.22,6.832-1.941,9.885-3.824
						c0,0,10.756-31.693,16.032-36.85c5.276-5.157,29.114-17.649,41.995-18.564c13.011-0.924,7.394,14.878,1.084,18.902
						c-6.31,4.024-30.526,8.463-32.761,12.097c-2.235,3.634-19.195,31.217-19.195,31.217c-1.791,1.873-3.106,4.061-4.646,6.215
						c-2.303,3.22-4.89,6.725-8.135,9.062c-1.892,1.362-4.185,2.025-6.426,2.665c-0.631,0.18-1.509,0.247-1.745-0.364
						c-0.138-0.356,0.049-0.751,0.255-1.072c1.335-2.075,3.64-3.365,5.029-5.404c0.343-0.503,0.606-1.237,0.18-1.672
						c-0.37-0.378-0.939-0.183-1.355-0.051c-0.69,0.221-1.418,0.322-2.131,0.485c-1.522,0.347-3.04,0.845-4.316,1.77
						c-0.66,0.478-1.239,1.058-1.814,1.636c-0.737,0.741-1.471,1.482-2.205,2.225c-0.377,0.382-0.759,0.768-1.217,1.048
						c-0.458,0.28-1.008,0.446-1.535,0.346c-0.388-0.074-0.781-0.346-0.82-0.738c-0.474,0.029-0.965,0.036-1.402-0.15
						c-0.436-0.186-0.802-0.615-0.773-1.088c0.008-0.131,0.046-0.263,0.024-0.392c-0.025-0.151-0.125-0.277-0.206-0.406
						c-0.382-0.612-0.353-1.41-0.101-2.086c0.253-0.675,0.704-1.254,1.15-1.822C263.53,273.936,263.629,273.216,263.925,272.636z"/>
					<g>
						
							<path style="fill:none;stroke:#333333;stroke-width:0.5;stroke-linecap:round;stroke-linejoin:round;stroke-miterlimit:10;" d="
							M265.293,280.249c1.731-2.69,3.83-5.142,6.221-7.267"/>
						
							<path style="fill:none;stroke:#333333;stroke-width:0.5;stroke-linecap:round;stroke-linejoin:round;stroke-miterlimit:10;" d="
							M263.198,278.538c2.108-2.847,4.571-5.432,7.313-7.675"/>
						
							<path style="fill:none;stroke:#333333;stroke-width:0.5;stroke-linecap:round;stroke-linejoin:round;stroke-miterlimit:10;" d="
							M264.239,274.347c1.764-2.104,3.705-4.06,5.797-5.839"/>
					</g>
				</g>
				<path style="fill:#F1CC4B;" d="M354.774,199.57c-11.252,1.565-26.345,6.025-26.345,6.025s-2.655,8.655,1.375,17.012
					c4.03,8.357,13.403,11.857,13.403,11.857l17.176-9.08C360.383,225.384,366.027,198.005,354.774,199.57z"/>
				<g>
					<path style="fill:#BF300C;" d="M296.267,262.934c0.166,0.029,0.341,0.053,0.499-0.003c0.19-0.067,0.324-0.235,0.445-0.396
						c0.915-1.22,1.722-2.521,2.407-3.883c-3.686-0.857-6.992-3.239-8.971-6.464c-0.502,1.26-1.515,2.87-1.676,4.208
						c-0.123,1.017,0.757,2.17,1.382,2.961C291.812,261.203,293.943,262.528,296.267,262.934z"/>
					<path style="fill:#6ABAD2;" d="M294.223,257.031c-0.526,2.656-2.48,4.506-4.364,4.133c-1.884-0.373-2.984-2.829-2.457-5.485
						c0.527-2.656,2.48-4.506,4.364-4.133C293.649,251.919,294.75,254.375,294.223,257.031z"/>
				</g>
				<g>
					
						<path style="fill:none;stroke:#333333;stroke-width:0.5;stroke-linecap:round;stroke-linejoin:round;stroke-miterlimit:10;" d="
						M358.042,202.096c0.622,6.795-0.898,13.77-4.29,19.689"/>
					
						<path style="fill:none;stroke:#333333;stroke-width:0.5;stroke-linecap:round;stroke-linejoin:round;stroke-miterlimit:10;" d="
						M360.18,205.749c0.436,3.81,0.078,7.709-1.043,11.377"/>
				</g>
			</g>
			<g>
				<path style="fill:#9B5B2F;" d="M405.557,161.077c2.98-1.421,5.018-4.483,5.097-7.658c0.079-3.175-1.804-6.326-4.71-7.88
					c1.602-2.149,1.829-5.157,0.566-7.503c-1.263-2.346-3.96-3.923-6.726-3.935c-0.595-0.003-1.239,0.049-1.735-0.265
					c-0.36-0.228-0.572-0.609-0.799-0.959c-2.216-3.417-7.369-4.739-11.086-2.845c-1.317-2.175-3.24-4.136-5.733-4.947
					c-2.494-0.81-5.595-0.207-7.108,1.848c-2.194-2.041-5.61-2.796-8.523-1.884c-2.913,0.912-5.193,3.45-5.69,6.334
					c-3.337-1.061-7.237-0.623-10.029,1.417c-2.791,2.04-4.255,5.717-3.273,8.936c-5.002,2.312-7.144,8.952-4.368,13.543
					c-1.46,2.242-2.951,4.562-3.387,7.169c-0.435,2.606,0.451,5.6,2.832,6.947c-0.452,2.478-0.584,5.101,0.384,7.441
					c0.968,2.34,3.254,4.321,5.893,4.373c-0.155,2.607,1.057,5.256,3.167,6.923c2.11,1.667,5.066,2.31,7.725,1.681
					c2.509,3.812,8.022,5.526,12.407,3.859c3.68-1.399,6.187-4.709,7.849-8.137c0.175-0.36,0.359-0.743,0.705-0.963
					c0.364-0.231,0.83-0.237,1.267-0.249c5.099-0.147,9.947-2.669,13.159-6.394c1.537-1.783,2.227-4.193,3.881-5.84
					c1.275-1.27,3.141-1.894,4.557-3.02C404.197,167.224,406.618,164.126,405.557,161.077z"/>
				<g>
					<defs>
						<path id="XMLID_5_" d="M365.624,201.724c0,3.113,1.421,5.949,8.607,5.949c7.186,0,8.607-2.736,8.607-5.949
							c0-3.213,1.057-15.528,1.057-15.528h-19.328C364.567,186.196,365.624,198.611,365.624,201.724z"/>
					</defs>
					<use xlink:href="#XMLID_5_"  style="overflow:visible;fill:#F2B27E;"/>
					<clipPath id="XMLID_00000172406472679110753730000000698174833398069131_">
						<use xlink:href="#XMLID_5_"  style="overflow:visible;"/>
					</clipPath>
					
						<ellipse style="opacity:0.7;clip-path:url(#XMLID_00000172406472679110753730000000698174833398069131_);fill:#F2B27E;" cx="379.213" cy="183.462" rx="16.531" ry="15.83"/>
				</g>
				<path style="fill:#F2B27E;" d="M351.611,164.349c-0.101-7.728,2.008-15.512,6.334-21.466c4.162-5.728,10.554-9.114,18.139-9.324
					c7.585-0.21,13.463,2.182,18.16,6.76c5.177,5.045,7.718,12.545,7.109,19.747c-0.267,3.159-1.097,6.257-1.256,9.424
					c-0.288,5.729,1.602,11.678-0.287,17.094c-1.629,4.671-5.931,8.079-10.656,9.543c-4.725,1.464-9.831,1.196-14.687,0.254
					c-6.881-1.336-12.603-6.226-16.652-11.853C353.777,178.913,351.706,171.656,351.611,164.349z"/>
				<g>
					<path style="fill:#E89777;" d="M363.119,178.381c0,2.796,2.267,5.062,5.063,5.062s5.062-2.266,5.062-5.062
						c0-2.796-2.266-5.063-5.062-5.063S363.119,175.585,363.119,178.381z"/>
					<path style="fill:#E89777;" d="M389.793,178.381c0,2.796,2.267,5.062,5.062,5.062c2.796,0,5.063-2.266,5.063-5.062
						c0-2.796-2.266-5.063-5.063-5.063C392.059,173.318,389.793,175.585,389.793,178.381z"/>
				</g>
				<g>
					<g>
						<g>
							
								<path style="fill:none;stroke:#333333;stroke-width:0.5;stroke-linecap:round;stroke-linejoin:round;stroke-miterlimit:10;" d="
								M382.319,189.353c-1.558,0.1-3.143-0.154-4.453-0.715"/>
							<g>
								<defs>
									<path id="XMLID_4_" d="M375.313,182.839c-0.399,2.156,1.919,4.239,5.178,4.653c3.259,0.413,6.224-1,6.623-3.156
										c0.399-2.156-2.307-2.142-5.566-2.556C378.289,181.366,375.712,180.682,375.313,182.839z"/>
								</defs>
								<use xlink:href="#XMLID_4_"  style="overflow:visible;fill:#C9413A;"/>
								<clipPath id="XMLID_00000085955280151724921250000016045893576854502545_">
									<use xlink:href="#XMLID_4_"  style="overflow:visible;"/>
								</clipPath>
								<path style="clip-path:url(#XMLID_00000085955280151724921250000016045893576854502545_);fill:#F96C4B;" d="M370.136,184.61
									c-0.867,2.183,1.838,4.928,6.043,6.131c4.205,1.203,8.317,0.408,9.185-1.775c0.868-2.183-1.838-4.928-6.043-6.131
									C375.116,181.632,371.003,182.427,370.136,184.61z"/>
								<path style="clip-path:url(#XMLID_00000085955280151724921250000016045893576854502545_);fill:#FFFFFF;" d="
									M375.606,181.025c-0.259,1.469,2.285,2.292,5.533,2.683c3.248,0.39,5.864,0.516,6.123-0.953
									c0.259-1.469-2.279-2.041-5.527-2.432C378.487,179.931,375.865,179.556,375.606,181.025z"/>
								
									<use xlink:href="#XMLID_4_"  style="overflow:visible;fill:none;stroke:#333333;stroke-width:0.5;stroke-linecap:round;stroke-linejoin:round;stroke-miterlimit:10;"/>
							</g>
						</g>
					</g>
					
						<path style="fill:none;stroke:#333333;stroke-width:0.5;stroke-linecap:round;stroke-linejoin:round;stroke-miterlimit:10;" d="
						M385.475,164.449c-0.297,2.758,0.179,5.594,1.36,8.104c0.652,1.385,1.537,2.771,1.448,4.298
						c-0.06,1.034-0.602,2.03-1.436,2.643c-0.835,0.613-1.947,0.832-2.952,0.58"/>
					<g>
						
							<path style="fill:none;stroke:#333333;stroke-width:0.5;stroke-linecap:round;stroke-linejoin:round;stroke-miterlimit:10;" d="
							M378.474,171.87c0,0-2.889-3.632-7.764-2.007"/>
						
							<path style="fill:none;stroke:#333333;stroke-width:0.5;stroke-linecap:round;stroke-linejoin:round;stroke-miterlimit:10;" d="
							M379.448,170.979c0,0-0.685-1.305-1.764-1.799"/>
					</g>
					<g>
						
							<path style="fill:none;stroke:#333333;stroke-width:0.5;stroke-linecap:round;stroke-linejoin:round;stroke-miterlimit:10;" d="
							M388.854,171.87c0,0,2.889-3.632,7.764-2.007"/>
						
							<path style="fill:none;stroke:#333333;stroke-width:0.5;stroke-linecap:round;stroke-linejoin:round;stroke-miterlimit:10;" d="
							M387.88,170.979c0,0,0.685-1.305,1.764-1.799"/>
					</g>
				</g>
				<g>
					<path style="fill:#9B5B2F;" d="M373.659,157.309c3.234-1.17,5.518,0.653,5.789,2.446c0,0-2.009-0.663-5.063-0.202
						c-3.055,0.462-5.533,1.802-5.533,1.802S370.423,158.48,373.659,157.309z"/>
					<path style="fill:#9B5B2F;" d="M392.984,157.309c-3.234-1.17-5.518,0.653-5.789,2.446c0,0,2.009-0.663,5.064-0.202
						c3.055,0.462,5.533,1.802,5.533,1.802S396.22,158.48,392.984,157.309z"/>
				</g>
				<path style="fill:#9B5B2F;" d="M360.285,160.308c2.335,1.038,5.177-0.207,6.772-2.203c1.595-1.996,2.234-4.569,2.831-7.054
					c1.864,0.777,4.081,0.077,5.627-1.222c1.546-1.298,2.562-3.104,3.544-4.869c0.938,1.858,1.921,3.771,3.527,5.095
					c1.606,1.324,4.018,1.905,5.791,0.814c0.204-0.126,0.419-0.277,0.657-0.255c0.337,0.03,0.537,0.375,0.707,0.667
					c1.432,2.471,4.704,3.697,7.407,2.775c0.396,1.663,0.805,3.357,1.687,4.822c0.882,1.465,2.328,2.692,4.029,2.873
					c1.926-7.009,0.259-14.845-4.121-20.646c-4.381-5.8-11.323-9.516-18.555-10.244c-5.769-0.581-11.769,0.711-16.597,3.922
					c-5.439,3.618-9.136,9.453-11.155,15.666c-1.399,4.306-2.743,11.136-0.236,15.325c1.058,1.769,2.875,1.856,4.531,0.796
					C358.863,165.205,359.628,162.601,360.285,160.308z"/>
				<g>
					<path style="fill:#F2B27E;" d="M347.272,173.225c1.943,5.225,6.706,8.348,9.094,7.186c1.854-0.902,2.146-4.381,1.066-8.555
						c-1.08-4.174-4.199-9.484-7.346-8.691C346.939,163.959,345.33,168,347.272,173.225z"/>
					<path style="opacity:0.7;fill:#F2B27E;" d="M349.938,166.111c1.56,0.633,2.791,1.899,3.717,3.305
						c1.244,1.889,2.013,4.088,2.219,6.341c-0.502-0.37-1.19-0.472-1.778-0.263c-0.632,0.224-0.916,0.707-1.225,1.251
						c-1.391-0.581-2.604-2.604-3.238-3.898c-0.743-1.516-1.146-3.202-1.129-4.891C348.514,167.072,348.758,165.632,349.938,166.111
						z"/>
				</g>
			</g>
			<g>
				<path style="fill:#605651;" d="M358.986,244.443c-2.539,2.883-5.078,5.766-7.617,8.649c-2.628,2.984-4.898,4.488-6.816,7.935
					c-1.119,2.011-2.568,5.649-2.993,7.929c5.061-3.084,16.823-8.149,27.109-13.178C364.264,253.274,360.77,249.186,358.986,244.443
					z"/>
				<path style="fill:#605651;" d="M391.885,228.01c0.02,0.022,0.04,0.044,0.06,0.066c0.094-0.997,0.168-1.98,0.227-2.934
					c0.509-8.35,1.997-16.799,1.578-25.135c-2.096-1.109-4.896-0.737-4.896-0.737s-0.015,3.027-0.185,4.063
					c-0.586,3.575-1.415,7.148-3.238,10.317c-1.267,2.203-2.959,4.127-4.639,6.034c-0.234,0.265-0.467,0.531-0.701,0.796
					c1.51,0.228,2.995,0.72,4.353,1.416C387.316,223.368,389.702,225.633,391.885,228.01z"/>
				<path style="fill:#938782;" d="M391.945,228.077c-0.02-0.022-0.04-0.044-0.06-0.066c-2.183-2.377-4.569-4.642-7.442-6.113
					c-1.358-0.695-2.843-1.188-4.353-1.416c-7.035,7.987-14.069,15.975-21.104,23.962c1.784,4.743,5.277,8.831,9.682,11.336
					c7.273-3.555,13.81-7.091,16.714-9.895C389.824,241.597,391.337,234.518,391.945,228.077z"/>
			</g>
		</g>
	</g>
	<g>
		<ellipse style="opacity:0.05;" cx="558.974" cy="427.702" rx="82.338" ry="7.857"/>
		<g>
			<g>
				<path style="fill:#DE582A;" d="M488.563,404.521c-2.664-5.588-4.46-11.542-6.245-17.469c-1.289-4.278-2.59-8.686-2.496-13.118
					c-0.828,0.354-1.394,0.602-1.576,0.698c-3.901,2.078,0.396,9.547,1.342,12.326c1.562,4.593,2.201,9.435,3.684,14.049
					c1.26,3.92,3.639,8.98,7.068,11.476c2.161,1.573,4.314-0.212,5.203-2.38c0.551-1.345,0.608-4.817,0.636-8.478
					C493.388,401.543,490.55,402.548,488.563,404.521z"/>
				<path style="fill:#B27449;" d="M489.529,382.684c0.288,0.25,0.729,0.085,1.077-0.072c1.37-0.615,2.874-0.93,4.375-0.916
					c0.558,0.005,1.133,0.06,1.629,0.316c0.965,0.498,1.349,1.552,1.512,2.673c0.356-0.895,0.824-1.732,1.502-2.45
					c2.045-2.168,4.713-3.626,7.357-5.002l-10.868-10.791c-1.621,1.029-5.006,2.603-8.402,4.102
					c0.092,3.919,0.607,7.828,1.57,11.628C489.327,382.358,489.383,382.557,489.529,382.684z"/>
				<path style="fill:#BF300C;" d="M496.628,392.075c0.475-2.366,0.578-5.09,1.493-7.39c-0.163-1.121-0.547-2.175-1.512-2.673
					c-0.496-0.256-1.071-0.311-1.629-0.316c-1.501-0.014-3.005,0.301-4.375,0.916c-0.348,0.156-0.789,0.321-1.077,0.072
					c-0.146-0.127-0.202-0.326-0.249-0.513c-0.963-3.8-1.478-7.709-1.57-11.628c-2.208,0.974-4.421,1.916-6.157,2.654
					c-0.653,0.277-1.238,0.526-1.731,0.737c-0.094,4.433,1.207,8.84,2.496,13.118c1.786,5.927,3.581,11.881,6.245,17.469
					c1.987-1.973,4.825-2.978,7.617-2.894c0.005-0.641,0.009-1.287,0.014-1.929C496.22,396.704,496.28,393.81,496.628,392.075z"/>
			</g>
			<g>
				<path style="fill:#DE582A;" d="M628.615,426.409c-6.185,0.264-12.366-0.414-18.519-1.092c-4.441-0.489-9.006-1.017-13.048-2.839
					c0.002,0.9,0.008,1.518,0.026,1.724c0.385,4.403,8.94,3.372,11.868,3.591c4.838,0.361,9.543,1.669,14.37,2.11
					c4.1,0.375,9.688,0.167,13.327-2.012c2.294-1.373,1.494-4.053-0.153-5.72c-1.021-1.033-4.194-2.446-7.552-3.904
					C627.764,420.803,627.577,423.808,628.615,426.409z"/>
				<path style="fill:#B27449;" d="M608.899,416.972c0.343-0.167,0.363-0.638,0.356-1.019c-0.03-1.501,0.269-3.008,0.87-4.384
					c0.223-0.512,0.498-1.019,0.928-1.375c0.836-0.693,1.956-0.634,3.051-0.345c-0.684-0.678-1.271-1.436-1.667-2.341
					c-1.194-2.73-1.491-5.757-1.723-8.728l-14.185,5.777c0.312,1.894,0.436,5.625,0.485,9.337c3.642,1.45,7.441,2.505,11.315,3.107
					C608.521,417.03,608.725,417.057,608.899,416.972z"/>
				<path style="fill:#BF300C;" d="M620.32,414.116c-1.991-1.363-4.457-2.524-6.216-4.267c-1.095-0.289-2.215-0.349-3.051,0.345
					c-0.43,0.356-0.705,0.864-0.928,1.375c-0.601,1.376-0.9,2.883-0.87,4.384c0.008,0.381-0.013,0.852-0.356,1.019
					c-0.174,0.085-0.378,0.058-0.569,0.028c-3.874-0.602-7.673-1.658-11.315-3.107c0.032,2.413,0.033,4.818,0.032,6.705
					c0,0.709-0.001,1.345,0,1.881c4.042,1.822,8.607,2.35,13.048,2.839c6.153,0.677,12.335,1.355,18.519,1.092
					c-1.037-2.601-0.851-5.606,0.319-8.142c-0.588-0.255-1.181-0.512-1.77-0.769C624.419,416.303,621.78,415.115,620.32,414.116z"/>
			</g>
			<g>
				<path style="fill:#CC9864;" d="M613.466,360.437c-0.566-14.202,0.936-59.965,0.72-66.159c0,0-0.149-34.269-30.693-34.269
					c-30.544,0-31.85,28.012-31.85,28.012c-2.662,6.219-17.657,50.744-17.657,50.744c-15.604,5.873-36.683,22.625-41.175,25.476
					c0,0-0.846,4.318,2.522,10.32s8.347,8.171,8.347,8.171c1.845-0.96,41.901-24.059,43.348-24.951
					c10.06-6.199,25.891-30.213,34.867-44.884c2.584,14.011,6.518,34.631,6.393,38.533c-0.797,24.807,4.942,54.305,5.977,60.108
					c0,0,2.626,1.535,11.67,0c9.045-1.535,10.136-4.865,10.136-4.865C615.915,404.965,613.539,362.252,613.466,360.437z"/>
				<g>
					
						<path style="fill:none;stroke:#333333;stroke-width:0.5;stroke-linecap:round;stroke-linejoin:round;stroke-miterlimit:10;" d="
						M582.553,311.923c8.564-2.121,17.127-4.241,25.691-6.362"/>
					
						<path style="fill:none;stroke:#333333;stroke-width:0.5;stroke-linecap:round;stroke-linejoin:round;stroke-miterlimit:10;" d="
						M583.184,313.001c6.04-0.461,12.086-0.833,18.136-1.117"/>
					
						<path style="fill:none;stroke:#333333;stroke-width:0.5;stroke-linecap:round;stroke-linejoin:round;stroke-miterlimit:10;" d="
						M492.717,367.026c13.467-8.056,26.995-19.321,41.202-25.986c0.92-0.432,1.878-0.869,2.547-1.635
						c0.525-0.601,0.829-1.357,1.119-2.1c1.773-4.55,3.328-9.182,4.883-13.811c4.365-12.996,8.73-25.992,13.096-38.988"/>
					
						<path style="fill:none;stroke:#333333;stroke-width:0.5;stroke-linecap:round;stroke-linejoin:round;stroke-miterlimit:10;" d="
						M548.44,306.282c3.885-0.751,7.311-3.115,10.012-6.008c2.7-2.893,4.76-6.312,6.8-9.704"/>
					
						<path style="fill:none;stroke:#333333;stroke-width:0.5;stroke-linecap:round;stroke-linejoin:round;stroke-miterlimit:10;" d="
						M584.227,311.296c2.415-5.358,4.051-11.066,4.842-16.889"/>
					
						<path style="fill:none;stroke:#333333;stroke-width:0.5;stroke-linecap:round;stroke-linejoin:round;stroke-miterlimit:10;" d="
						M589.695,310.24c2.797-5.486,4.643-11.456,5.43-17.564"/>
					
						<path style="fill:none;stroke:#333333;stroke-width:0.5;stroke-linecap:round;stroke-linejoin:round;stroke-miterlimit:10;" d="
						M586.715,310.822c-0.062-0.266-0.526-0.095-0.532,0.178c-0.006,0.273,0.217,0.487,0.375,0.709
						c0.502,0.708,0.388,1.662,0.29,2.525c-1.265,11.177,3.908,22.097,4.35,33.337c0.107,2.723-0.065,5.447-0.118,8.171
						c-0.086,4.394,0.135,8.789,0.442,13.173c1.011,14.463,2.946,28.861,5.791,43.077"/>
					
						<path style="fill:none;stroke:#333333;stroke-width:0.5;stroke-linecap:round;stroke-linejoin:round;stroke-miterlimit:10;" d="
						M496.43,361.751c-0.168,7.735,4.386,15.383,11.266,18.922"/>
					
						<path style="fill:none;stroke:#333333;stroke-width:0.5;stroke-linecap:round;stroke-linejoin:round;stroke-miterlimit:10;" d="
						M593.417,406.96c3.945,0.354,7.885-0.531,11.747-1.411c3.651-0.831,7.458-1.738,10.31-4.166"/>
					
						<path style="fill:none;stroke:#333333;stroke-width:0.5;stroke-linecap:round;stroke-linejoin:round;stroke-miterlimit:10;" d="
						M545.358,344.226c0.104,0.052,0.078-0.196-0.034-0.165c-0.112,0.031-0.135,0.177-0.135,0.293
						c-0.006,3.448,0.597,6.897,1.775,10.138"/>
					
						<path style="fill:none;stroke:#333333;stroke-width:0.5;stroke-linecap:round;stroke-linejoin:round;stroke-miterlimit:10;" d="
						M589.766,342.367c4.198,6.147,9.657,11.428,15.94,15.42"/>
				</g>
			</g>
			<path style="fill:#DBB53E;" d="M602.966,263.163c-6.364,15.692-47.07,18.637-57.253,3.592
				c-10.183-15.044-10.524-45.431,3.2-62.479c13.724-17.048,44.367-10.31,53.232-0.85
				C611.011,212.887,609.329,247.471,602.966,263.163z"/>
			<g>
				<path style="fill:#B27449;" d="M670.44,306.944c-0.131-0.68-0.645-1.211-1.135-1.699c-1.697-1.691-3.394-3.381-5.092-5.072
					c-0.872-0.868-1.743-1.736-2.614-2.604c-0.309-0.307-1.586-1.438-0.389-1.648c0.362-0.064,0.714,0.124,1.038,0.297
					c0.935,0.501,1.925,0.944,2.979,1.066c1.054,0.122,2.19-0.114,2.973-0.83c0.298-0.272,0.55-0.652,0.497-1.051
					c-0.072-0.539-0.61-0.813-1.155-0.998c-0.128-0.043-0.255-0.082-0.377-0.118c-1.152-0.339-2.24-0.9-3.185-1.641
					c-1.014-0.795-1.872-1.814-2.998-2.462c-0.997-0.574-2.095-1.073-3.147-1.544c-2.518-1.128-5.216-1.876-7.231-3.87l-9.803,5.821
					c1.627,1.898,2.673,3.252,2.79,3.782c0.436,1.978,1.18,3.887,2.196,5.639c1.202,2.072,2.806,3.952,3.578,6.249
					c0.84,2.498,2.237,5.003,3.456,7.348c0.282,0.542,0.755,1.168,1.349,1.025c0.655-0.158,0.725-1.052,0.65-1.722
					c-0.201-1.78-1.247-4.604-1.448-6.385c1.733,2.288,4.429,5.53,6.386,7.629c0.696,0.746,2.06,1.421,2.546,0.525
					c0.248-0.457,0.018-1.015-0.212-1.481c-0.575-1.166-4.174-7.514-4.174-7.514s3.618,3.81,5.013,5.108
					c0.569,0.529,3.209,3.169,3.603,0.926c0.176-1.003-3.685-5.878-4.488-7.191c-0.362-0.591-1.362-2.165-1.362-2.165
					s3.184,2.214,3.859,2.716c1.309,0.972,2.618,1.945,3.928,2.917c0.285,0.211,0.593,0.432,0.948,0.441
					C670.113,308.457,670.571,307.623,670.44,306.944z"/>
				<g>
					
						<path style="fill:none;stroke:#333333;stroke-width:0.5;stroke-linecap:round;stroke-linejoin:round;stroke-miterlimit:10;" d="
						M658.112,296.879c-1.364-0.001-2.74-0.023-4.069-0.331c-1.328-0.308-2.621-0.927-3.519-1.953"/>
					
						<path style="fill:none;stroke:#333333;stroke-width:0.5;stroke-linecap:round;stroke-linejoin:round;stroke-miterlimit:10;" d="
						M655.149,299.541c-1.737,0.789-3.474,1.578-5.211,2.366"/>
				</g>
				<g>
					<path style="fill:#6ABAD2;" d="M647.99,285.349c1.215-1.498,2.147-3.182,2.891-4.958c-4.044-7.398-13.263-24.931-19.194-29.042
						c0,0-3.563-26.813-6.768-36.816c-3.205-10.002-10.783-13.084-12.409-13.383c-5.545-1.02-6.682,13.095-7.896,21.469
						c-1.57,10.831,7.485,28.856,11.308,37.483c2.813,6.349,14.858,21.743,22.1,30.482
						C641.843,290.527,645.55,288.357,647.99,285.349z"/>
					<path style="fill:#418899;" d="M647.99,285.349c-2.44,3.009-6.146,5.178-9.968,5.236c1.039,1.254,1.98,2.372,2.78,3.305
						c0,0,4.048-0.259,7.666-3.319c3.618-3.06,4.337-6.901,4.337-6.901c-0.24-0.238-0.928-1.455-1.924-3.278
						C650.137,282.167,649.205,283.85,647.99,285.349z"/>
				</g>
			</g>
			<path style="fill:#F1CC4B;" d="M612.51,201.15c0,0,5.093,9.835,5.154,22.363c0.06,12.528-6.288,24.781-6.288,24.781l0.649,4.823
				c0,0,11.561-12.678,12.021-27.402c0.223-7.131-0.882-14.182-3.24-18.83C620.805,206.885,617.795,201.064,612.51,201.15z"/>
			<g>
				<path style="fill:#B27449;" d="M507.522,272.027c-2.536,2.538-5.764,4.045-8.735,6.004c-1.619,1.068-3.25,2.145-4.622,3.516
					c-1.227,1.225-2.343,2.453-3.271,3.939c-1.097,1.758-2.195,3.516-3.292,5.274c-0.345,0.552-0.695,1.116-0.85,1.749
					c-0.155,0.633-0.084,1.356,0.341,1.848c-0.302,0.655-0.607,1.323-0.698,2.038c-0.09,0.716,0.067,1.499,0.58,2.006
					c0.109,0.107,0.236,0.206,0.295,0.348c0.051,0.121,0.045,0.258,0.067,0.387c0.081,0.467,0.536,0.799,1.003,0.88
					c0.468,0.08,0.944-0.04,1.398-0.178c0.129,0.373,0.574,0.547,0.968,0.529c0.536-0.024,1.033-0.313,1.414-0.691
					c0.381-0.378,0.663-0.842,0.942-1.301c0.542-0.892,1.086-1.784,1.631-2.674c0.426-0.695,0.855-1.393,1.387-2.011
					c1.028-1.194,2.39-2.029,3.791-2.719c0.656-0.323,1.341-0.59,1.961-0.964c0.375-0.225,0.883-0.546,1.331-0.264
					c0.515,0.325,0.428,1.1,0.211,1.669c-0.881,2.305-2.825,4.092-3.645,6.42c-0.127,0.36-0.217,0.787-0.001,1.102
					c0.371,0.54,1.21,0.272,1.782-0.049c2.033-1.14,4.111-2.314,5.637-4.077c2.618-3.023,4.325-7.031,5.822-10.696
					c1.001-2.452,1.775-4.884,3.085-7.12L507.522,272.027z"/>
				<g>
					
						<path style="fill:none;stroke:#333333;stroke-width:0.5;stroke-linecap:round;stroke-linejoin:round;stroke-miterlimit:10;" d="
						M489.842,299.599c1.063-3.017,2.539-5.888,4.374-8.508"/>
					
						<path style="fill:none;stroke:#333333;stroke-width:0.5;stroke-linecap:round;stroke-linejoin:round;stroke-miterlimit:10;" d="
						M487.408,298.418c1.394-3.257,3.193-6.341,5.342-9.157"/>
					
						<path style="fill:none;stroke:#333333;stroke-width:0.5;stroke-linecap:round;stroke-linejoin:round;stroke-miterlimit:10;" d="
						M487.454,294.1c1.23-2.455,2.667-4.806,4.291-7.02"/>
				</g>
			</g>
			<g>
				<path style="fill:#418899;" d="M510.874,276.624c-3.074-1.722-5.395-4.69-6.429-8.053c-0.828,1.471-1.323,2.356-1.323,2.356
					s-0.711,4.876,5.099,8.302c5.81,3.426,8.934,2.163,8.934,2.163s0.723-1.194,1.897-3.129
					C516.241,278.547,513.342,278.006,510.874,276.624z"/>
				<path style="fill:#6ABAD2;" d="M557.044,202.096c-11.65,5.571-27.908,25.773-33.287,33.464
					c-3.5,5.005-15.335,25.941-19.312,33.01c1.034,3.363,3.355,6.331,6.429,8.053c2.468,1.382,5.367,1.924,8.178,1.639
					c4.889-8.059,17.701-29.124,19.708-31.918c2.49-3.465,22.419-16.717,26.816-22.773S568.811,196.469,557.044,202.096z"/>
			</g>
			<g>
				<path style="fill:#6ABAD2;" d="M590.573,197.156c-20.542,0-33.529,4.941-33.529,4.941s1.8,37.069,1.168,52.036
					c-0.631,14.967-8.923,36.329-8.923,36.329s8.691,16.328,33.973,16.784s33.279-11.509,33.279-11.509s-5.793-28.445-3.667-45.498
					s2.899-47.618-0.906-49.345C607.915,199.055,601.167,197.156,590.573,197.156z"/>
				<path style="fill:#418899;" d="M583.262,301.895c-20.36-0.367-29.242-12.449-31.93-17.142c-1.184,3.493-2.043,5.709-2.043,5.709
					s8.691,16.328,33.973,16.784c25.281,0.456,33.279-11.509,33.279-11.509s-0.334-1.643-0.809-4.356
					C613.161,294.238,604.068,302.27,583.262,301.895z"/>
				<g>
					
						<path style="fill:none;stroke:#333333;stroke-width:0.5;stroke-linecap:round;stroke-linejoin:round;stroke-miterlimit:10;" d="
						M612.589,251.594c2.608-10.207,4.414-20.618,5.397-31.107"/>
					
						<path style="fill:none;stroke:#333333;stroke-width:0.5;stroke-linecap:round;stroke-linejoin:round;stroke-miterlimit:10;" d="
						M565.713,273.25c6.587,12.697,21.565,20.475,35.74,18.56"/>
				</g>
				<path style="fill:#B27449;" d="M576.509,201.74c-0.147,2.872,17.415,11.611,17.415,11.611s7.915-7.437,8.062-10.31
					c0.147-2.872-5.494-4.393-12.529-4.752C582.422,197.93,576.656,198.868,576.509,201.74z"/>
			</g>
			<path style="fill:#F1CC4B;" d="M571.604,198.694c0,0-0.942-0.949-3.528-0.179c-2.586,0.77-4.384,1.82-4.384,1.82
				s2.416,11.367-0.847,22.897c-3.263,11.53-8.927,18.977-8.927,18.977s-1.028,2.296-0.514,5.5c0.514,3.204,2.988,5.644,2.988,5.644
				s9.711-12.661,13.308-26.947C573.294,212.12,571.604,198.694,571.604,198.694z"/>
			<g>
				<path style="fill:#5E4028;" d="M628.266,141.204c-7.793-6.062-12.898-15.671-21.957-19.596
					c-3.943-1.709-8.324-2.166-12.621-2.101c-5.126,0.077-10.314,0.893-14.949,3.085c-2.554,1.208-4.915,2.877-6.873,4.907
					l0.043-0.064c-5.118-0.26-10.123,2.44-13.346,6.425c-3.223,3.985-4.801,9.112-5.201,14.221
					c-0.719,9.196,2.289,18.589,8.034,25.804c2.889,3.629,6.608,7.088,7.145,11.695c1.982-0.557,3.746-1.858,4.864-3.587
					c0.968,2.133,2.662,4.66,4.95,4.16c1.142-0.249,1.961-1.216,2.734-2.092c1.243-1.41,2.63-2.759,4.348-3.521
					c1.718-0.763,3.834-0.849,5.403,0.186c1.526,1.007,2.399,2.94,4.127,3.539c2.22,0.769,4.46-1.073,5.885-2.941
					c1.425-1.868,2.869-4.094,5.181-4.51c0.794-0.143,1.61-0.047,2.414-0.112c1.738-0.14,3.334-1.026,4.72-2.085
					c5.257-4.015,8.025-10.439,10.145-16.706c0.667-1.971,1.295-3.976,1.477-6.049c0.291-3.32-0.575-6.62-1.433-9.84
					C625.025,142.268,626.768,141.978,628.266,141.204z"/>
				<g>
					<defs>
						<path id="XMLID_2_" d="M580.704,198.582c0,3.113,1.421,5.949,8.607,5.949c7.186,0,8.607-2.736,8.607-5.949
							s1.057-15.528,1.057-15.528h-19.328C579.647,183.054,580.704,195.469,580.704,198.582z"/>
					</defs>
					<use xlink:href="#XMLID_2_"  style="overflow:visible;fill:#B27449;"/>
					<clipPath id="XMLID_00000007413519460997894990000011070422576711499410_">
						<use xlink:href="#XMLID_2_"  style="overflow:visible;"/>
					</clipPath>
					
						<ellipse style="opacity:0.5;clip-path:url(#XMLID_00000007413519460997894990000011070422576711499410_);fill:#B27449;" cx="594.294" cy="180.319" rx="16.531" ry="15.83"/>
				</g>
				<path style="fill:#B27449;" d="M566.691,161.206c-0.101-7.728,2.008-15.512,6.334-21.466c4.162-5.728,10.554-9.114,18.139-9.324
					c7.585-0.21,13.463,2.182,18.16,6.76c5.177,5.045,7.718,12.544,7.109,19.747c-0.267,3.159-1.097,6.257-1.256,9.424
					c-0.288,5.729,1.602,11.678-0.287,17.093c-1.629,4.671-5.931,8.079-10.656,9.543c-4.725,1.464-9.831,1.196-14.687,0.254
					c-6.881-1.336-12.603-6.226-16.652-11.853C568.857,175.77,566.786,168.513,566.691,161.206z"/>
				<g>
					<path style="fill:#A55D47;" d="M578.199,175.238c0,2.796,2.266,5.062,5.062,5.062c2.796,0,5.062-2.267,5.062-5.062
						c0-2.796-2.266-5.063-5.062-5.063C580.466,170.176,578.199,172.442,578.199,175.238z"/>
					<path style="fill:#A55D47;" d="M604.873,175.238c0,2.796,2.266,5.062,5.062,5.062c2.796,0,5.062-2.267,5.062-5.062
						c0-2.796-2.266-5.063-5.062-5.063C607.14,170.176,604.873,172.442,604.873,175.238z"/>
				</g>
				<g>
					<g>
						
							<path style="fill:none;stroke:#333333;stroke-width:0.5;stroke-linecap:round;stroke-linejoin:round;stroke-miterlimit:10;" d="
							M600.555,161.307c-0.297,2.758,0.179,5.594,1.36,8.104c0.652,1.385,1.537,2.771,1.448,4.298
							c-0.06,1.034-0.601,2.03-1.436,2.643c-0.835,0.613-1.947,0.832-2.952,0.58"/>
						
							<path style="fill:none;stroke:#333333;stroke-width:0.5;stroke-linecap:round;stroke-linejoin:round;stroke-miterlimit:10;" d="
							M597.4,186.211c-1.558,0.1-3.143-0.154-4.454-0.715"/>
						<g>
							<defs>
								<path id="XMLID_1_" d="M590.393,179.696c-0.399,2.156,1.919,4.239,5.178,4.653c3.258,0.413,6.224-1,6.623-3.156
									c0.399-2.156-2.307-2.142-5.566-2.555C593.37,178.224,590.792,177.54,590.393,179.696z"/>
							</defs>
							<use xlink:href="#XMLID_1_"  style="overflow:visible;fill:#C9413A;"/>
							<clipPath id="XMLID_00000012431919396941330570000004793206776593638075_">
								<use xlink:href="#XMLID_1_"  style="overflow:visible;"/>
							</clipPath>
							<path style="clip-path:url(#XMLID_00000012431919396941330570000004793206776593638075_);fill:#F96C4B;" d="M585.216,181.467
								c-0.867,2.183,1.838,4.928,6.043,6.131c4.205,1.203,8.317,0.408,9.185-1.775c0.867-2.183-1.838-4.928-6.043-6.131
								C590.196,178.49,586.084,179.284,585.216,181.467z"/>
							<path style="clip-path:url(#XMLID_00000012431919396941330570000004793206776593638075_);fill:#FFFFFF;" d="M590.686,177.882
								c-0.259,1.469,2.285,2.292,5.533,2.683c3.248,0.39,5.864,0.515,6.123-0.954c0.259-1.469-2.279-2.041-5.527-2.432
								C593.568,176.789,590.945,176.413,590.686,177.882z"/>
							
								<use xlink:href="#XMLID_1_"  style="overflow:visible;fill:none;stroke:#333333;stroke-width:0.5;stroke-linecap:round;stroke-linejoin:round;stroke-miterlimit:10;"/>
						</g>
					</g>
					<path style="fill:#38322E;" d="M587.402,166.72c0,1.353,1.097,2.45,2.45,2.45c1.353,0,2.45-1.097,2.45-2.45
						s-1.097-2.45-2.45-2.45C588.499,164.27,587.402,165.367,587.402,166.72z"/>
					<path style="fill:#38322E;" d="M603.37,166.72c0,1.353,1.097,2.45,2.45,2.45c1.353,0,2.45-1.097,2.45-2.45
						s-1.097-2.45-2.45-2.45C604.467,164.27,603.37,165.367,603.37,166.72z"/>
				</g>
				<g>
					<path style="fill:#5E4028;" d="M588.74,154.167c3.234-1.17,5.518,0.653,5.789,2.445c0,0-2.009-0.663-5.063-0.202
						c-3.055,0.461-5.533,1.802-5.533,1.802S585.504,155.337,588.74,154.167z"/>
					<path style="fill:#5E4028;" d="M608.065,154.167c-3.234-1.17-5.518,0.653-5.789,2.445c0,0,2.009-0.663,5.063-0.202
						c3.055,0.461,5.533,1.802,5.533,1.802S611.301,155.337,608.065,154.167z"/>
				</g>
				<path style="fill:#5E4028;" d="M576.408,159.275c3.133-3.186,6.89-5.978,8.767-10.033c-0.803,3.469-2.778,6.656-5.527,8.919
					c7.521-1.222,14.447-5.734,18.604-12.12c-0.558,2.755-1.859,5.355-3.728,7.455c2.903,0.702,6.02-0.206,8.504-1.864
					c2.484-1.658,4.424-4.004,6.189-6.414c-0.501,2.531-1.669,4.927-3.355,6.881c2.155,1.028,4.853,0.81,6.815-0.551
					c1.962-1.36,3.112-3.811,2.904-6.19c-0.171-1.96-1.174-3.741-2.239-5.395c-2.389-3.71-5.334-7.238-9.277-9.22
					c-2.01-1.011-4.214-1.584-6.431-1.97c-7.676-1.336-16.115-0.291-22.23,4.539c-2.387,1.885-4.339,4.275-5.985,6.833
					c-1.666,2.588-3.043,5.387-3.806,8.369c-0.636,2.486-0.836,5.082-0.59,7.635c0.266,2.762,1.047,5.447,1.891,8.09
					c0.633,1.98,2.729,8.629,4.52,3.75C572.685,164.587,573.78,161.948,576.408,159.275z"/>
				<g>
					<path style="fill:#B27449;" d="M562.353,170.082c1.943,5.225,6.706,8.348,9.094,7.186c1.854-0.901,2.146-4.381,1.066-8.554
						c-1.08-4.174-4.199-9.484-7.346-8.691C562.02,160.816,560.41,164.857,562.353,170.082z"/>
					<path style="opacity:0.5;fill:#B27449;" d="M565.019,162.969c1.56,0.633,2.791,1.899,3.717,3.305
						c1.244,1.889,2.013,4.088,2.219,6.341c-0.502-0.37-1.19-0.471-1.778-0.263c-0.632,0.224-0.916,0.708-1.225,1.251
						c-1.391-0.581-2.604-2.604-3.238-3.898c-0.743-1.516-1.146-3.202-1.129-4.892C563.594,163.93,563.838,162.49,565.019,162.969z"
						/>
				</g>
			</g>
		</g>
		<g>
			<path style="fill:#DE582A;" d="M534.438,147.043c8.418-6.814,13.803-17.225,13.803-28.899c0-20.527-16.64-37.167-37.167-37.167
				c-20.527,0-37.167,16.641-37.167,37.167c0,20.527,16.64,37.167,37.167,37.167c4.157,0,8.149-0.693,11.881-1.951
				c2.219,2.767,8.86,8.901,22.971,6.693C545.925,160.053,535.996,155.777,534.438,147.043z"/>
			<g>
				<path style="fill:#FFFFFF;" d="M526.498,134.628l-23.392,4.652c-0.976,0.194-1.925-0.44-2.119-1.416l-6.464-32.502
					c-0.194-0.976,0.44-1.925,1.416-2.119l23.392-4.652c0.976-0.194,1.925,0.44,2.119,1.416l6.464,32.502
					C528.108,133.485,527.474,134.433,526.498,134.628z"/>
				<path style="fill:#DBB53E;" d="M520.548,108.225l-22.046,4.384c-0.448,0.089-0.883-0.202-0.971-0.649l-1.002-5.039
					c-0.089-0.448,0.202-0.882,0.649-0.971l22.046-4.384c0.448-0.089,0.883,0.202,0.972,0.649l1.002,5.039
					C521.286,107.701,520.995,108.136,520.548,108.225z"/>
				<g>
					<g>
						<path style="fill:#6ABAD2;" d="M503.528,117.668l-2.928,0.582c-0.374,0.074-0.737-0.168-0.811-0.542l-0.582-2.928
							c-0.074-0.374,0.168-0.737,0.542-0.811l2.928-0.582c0.374-0.074,0.737,0.168,0.811,0.542l0.582,2.928
							C504.144,117.23,503.901,117.593,503.528,117.668z"/>
						<path style="fill:#6ABAD2;" d="M509.274,116.525l-2.928,0.582c-0.374,0.074-0.737-0.168-0.811-0.542l-0.582-2.928
							c-0.074-0.374,0.168-0.737,0.542-0.811l2.928-0.582c0.374-0.074,0.737,0.168,0.811,0.542l0.582,2.928
							C509.891,116.088,509.648,116.451,509.274,116.525z"/>
						<path style="fill:#6ABAD2;" d="M515.021,115.382l-2.928,0.582c-0.374,0.074-0.737-0.168-0.811-0.542l-0.582-2.928
							c-0.074-0.374,0.168-0.737,0.542-0.811l2.928-0.582c0.374-0.074,0.737,0.168,0.811,0.542l0.582,2.928
							C515.637,114.945,515.394,115.308,515.021,115.382z"/>
						<path style="fill:#6ABAD2;" d="M520.767,114.239l-2.928,0.582c-0.374,0.074-0.737-0.168-0.811-0.542l-0.582-2.928
							c-0.074-0.374,0.168-0.737,0.542-0.811l2.928-0.582c0.374-0.074,0.737,0.168,0.811,0.542l0.582,2.928
							C521.383,113.802,521.14,114.165,520.767,114.239z"/>
					</g>
					<g>
						<path style="fill:#DBB53E;" d="M504.687,123.495l-2.928,0.582c-0.374,0.074-0.737-0.168-0.811-0.542l-0.582-2.928
							c-0.074-0.374,0.168-0.737,0.542-0.811l2.928-0.582c0.374-0.074,0.737,0.168,0.811,0.542l0.582,2.928
							C505.303,123.058,505.06,123.421,504.687,123.495z"/>
						<path style="fill:#DBB53E;" d="M510.082,122.422l-2.928,0.582c-0.374,0.074-0.737-0.168-0.811-0.542l-0.582-2.928
							c-0.074-0.374,0.168-0.737,0.542-0.811l2.928-0.582c0.374-0.074,0.737,0.168,0.811,0.542l0.582,2.928
							C510.698,121.985,510.456,122.348,510.082,122.422z"/>
						<path style="fill:#DBB53E;" d="M515.477,121.349l-2.928,0.582c-0.374,0.074-0.737-0.168-0.811-0.542l-0.582-2.928
							c-0.074-0.374,0.168-0.737,0.542-0.811l2.928-0.582c0.374-0.074,0.737,0.168,0.811,0.542l0.582,2.928
							C516.094,120.912,515.851,121.275,515.477,121.349z"/>
					</g>
					<g>
						<path style="fill:#DBB53E;" d="M505.822,129.202l-2.928,0.582c-0.374,0.074-0.737-0.168-0.811-0.542l-0.582-2.928
							c-0.074-0.374,0.168-0.737,0.542-0.811l2.928-0.582c0.374-0.074,0.737,0.168,0.811,0.542l0.582,2.928
							C506.438,128.764,506.195,129.128,505.822,129.202z"/>
						<path style="fill:#DBB53E;" d="M511.217,128.129l-2.928,0.582c-0.374,0.074-0.737-0.168-0.811-0.542l-0.582-2.928
							c-0.074-0.374,0.168-0.737,0.542-0.811l2.928-0.582c0.374-0.074,0.737,0.169,0.811,0.542l0.582,2.928
							C511.833,127.691,511.591,128.055,511.217,128.129z"/>
						<path style="fill:#DBB53E;" d="M516.612,127.056l-2.928,0.582c-0.374,0.074-0.737-0.168-0.811-0.542l-0.582-2.928
							c-0.074-0.374,0.168-0.737,0.542-0.811l2.928-0.582c0.374-0.074,0.737,0.168,0.811,0.542l0.582,2.928
							C517.229,126.618,516.986,126.981,516.612,127.056z"/>
					</g>
					<g>
						<path style="fill:#DBB53E;" d="M506.956,134.908l-2.928,0.582c-0.374,0.074-0.737-0.168-0.811-0.542l-0.582-2.928
							c-0.074-0.374,0.168-0.737,0.542-0.811l2.928-0.582c0.374-0.074,0.737,0.168,0.811,0.542l0.582,2.928
							C507.573,134.471,507.33,134.834,506.956,134.908z"/>
						<path style="fill:#DBB53E;" d="M512.352,133.835l-2.928,0.582c-0.374,0.074-0.737-0.168-0.811-0.542l-0.582-2.927
							c-0.074-0.374,0.168-0.737,0.542-0.811l2.928-0.582c0.374-0.074,0.737,0.168,0.811,0.542l0.582,2.928
							C512.968,133.398,512.725,133.761,512.352,133.835z"/>
						<path style="fill:#DBB53E;" d="M517.747,132.762l-2.928,0.582c-0.374,0.074-0.737-0.168-0.811-0.542l-0.582-2.928
							c-0.074-0.374,0.168-0.737,0.542-0.811l2.928-0.582c0.374-0.074,0.737,0.168,0.811,0.542l0.582,2.928
							C518.363,132.325,518.121,132.688,517.747,132.762z"/>
					</g>
				</g>
				<path style="fill:#DE582A;" d="M524.195,131.48l-2.928,0.582c-0.374,0.074-0.737-0.168-0.811-0.542l-1.717-8.634
					c-0.074-0.374,0.168-0.737,0.542-0.811l2.928-0.582c0.374-0.074,0.737,0.168,0.811,0.542l1.717,8.634
					C524.812,131.043,524.569,131.406,524.195,131.48z"/>
				<path style="fill:#DBB53E;" d="M521.926,120.067l-2.928,0.582c-0.374,0.074-0.737-0.168-0.811-0.542l-0.582-2.928
					c-0.074-0.374,0.168-0.737,0.542-0.811l2.928-0.582c0.374-0.074,0.737,0.168,0.811,0.542l0.582,2.928
					C522.542,119.629,522.299,119.993,521.926,120.067z"/>
			</g>
		</g>
	</g>
	<g>
		<path style="fill:#605651;" d="M289.343,197.161l-31.267-9.753c-1.127-0.352-1.755-1.55-1.404-2.677l12.52-40.136
			c0.352-1.127,1.55-1.755,2.677-1.404l31.267,9.753c1.127,0.351,1.755,1.55,1.404,2.677l-12.52,40.136
			C291.668,196.884,290.47,197.512,289.343,197.161z"/>
		<g>
			
				<line style="fill:none;stroke:#333333;stroke-width:2;stroke-linecap:round;stroke-linejoin:round;stroke-miterlimit:10;" x1="267.19" y1="146.398" x2="270.325" y2="147.376"/>
			
				<line style="fill:none;stroke:#333333;stroke-width:2;stroke-linecap:round;stroke-linejoin:round;stroke-miterlimit:10;" x1="265.952" y1="150.366" x2="269.087" y2="151.344"/>
			
				<line style="fill:none;stroke:#333333;stroke-width:2;stroke-linecap:round;stroke-linejoin:round;stroke-miterlimit:10;" x1="264.715" y1="154.334" x2="267.85" y2="155.312"/>
			
				<line style="fill:none;stroke:#333333;stroke-width:2;stroke-linecap:round;stroke-linejoin:round;stroke-miterlimit:10;" x1="263.477" y1="158.302" x2="266.612" y2="159.279"/>
			
				<line style="fill:none;stroke:#333333;stroke-width:2;stroke-linecap:round;stroke-linejoin:round;stroke-miterlimit:10;" x1="262.239" y1="162.27" x2="265.374" y2="163.247"/>
			
				<line style="fill:none;stroke:#333333;stroke-width:2;stroke-linecap:round;stroke-linejoin:round;stroke-miterlimit:10;" x1="261.001" y1="166.237" x2="264.136" y2="167.215"/>
			
				<line style="fill:none;stroke:#333333;stroke-width:2;stroke-linecap:round;stroke-linejoin:round;stroke-miterlimit:10;" x1="259.764" y1="170.205" x2="262.899" y2="171.183"/>
			
				<line style="fill:none;stroke:#333333;stroke-width:2;stroke-linecap:round;stroke-linejoin:round;stroke-miterlimit:10;" x1="258.526" y1="174.173" x2="261.661" y2="175.151"/>
			
				<line style="fill:none;stroke:#333333;stroke-width:2;stroke-linecap:round;stroke-linejoin:round;stroke-miterlimit:10;" x1="257.288" y1="178.141" x2="260.423" y2="179.119"/>
			
				<line style="fill:none;stroke:#333333;stroke-width:2;stroke-linecap:round;stroke-linejoin:round;stroke-miterlimit:10;" x1="256.051" y1="182.109" x2="259.185" y2="183.087"/>
		</g>
		
			<rect x="273.751" y="155.755" transform="matrix(0.9546 0.2978 -0.2978 0.9546 60.7561 -77.482)" style="fill:#FFFFFF;" width="21.834" height="9.803"/>
	</g>
	<g>
		
			<rect x="462.869" y="129.489" transform="matrix(0.7426 -0.6697 0.6697 0.7426 -0.442 359.4511)" style="fill:#DBB53E;" width="9.167" height="101.623"/>
		<g>
			<g>
				
					<line style="fill:none;stroke:#333333;stroke-width:0.5;stroke-linecap:round;stroke-linejoin:round;stroke-miterlimit:10;" x1="432.415" y1="148.291" x2="435.111" y2="145.859"/>
				
					<line style="fill:none;stroke:#333333;stroke-width:0.5;stroke-linecap:round;stroke-linejoin:round;stroke-miterlimit:10;" x1="435.444" y1="151.65" x2="438.141" y2="149.218"/>
				
					<line style="fill:none;stroke:#333333;stroke-width:0.5;stroke-linecap:round;stroke-linejoin:round;stroke-miterlimit:10;" x1="438.473" y1="155.009" x2="441.17" y2="152.578"/>
				
					<line style="fill:none;stroke:#333333;stroke-width:0.5;stroke-linecap:round;stroke-linejoin:round;stroke-miterlimit:10;" x1="441.503" y1="158.369" x2="444.199" y2="155.937"/>
				
					<line style="fill:none;stroke:#333333;stroke-width:0.5;stroke-linecap:round;stroke-linejoin:round;stroke-miterlimit:10;" x1="444.532" y1="161.728" x2="447.229" y2="159.296"/>
				
					<line style="fill:none;stroke:#333333;stroke-width:0.5;stroke-linecap:round;stroke-linejoin:round;stroke-miterlimit:10;" x1="447.561" y1="165.087" x2="450.258" y2="162.656"/>
				
					<line style="fill:none;stroke:#333333;stroke-width:0.5;stroke-linecap:round;stroke-linejoin:round;stroke-miterlimit:10;" x1="450.591" y1="168.447" x2="453.287" y2="166.015"/>
				
					<line style="fill:none;stroke:#333333;stroke-width:0.5;stroke-linecap:round;stroke-linejoin:round;stroke-miterlimit:10;" x1="453.62" y1="171.806" x2="456.317" y2="169.374"/>
				
					<line style="fill:none;stroke:#333333;stroke-width:0.5;stroke-linecap:round;stroke-linejoin:round;stroke-miterlimit:10;" x1="456.65" y1="175.165" x2="459.346" y2="172.734"/>
				
					<line style="fill:none;stroke:#333333;stroke-width:0.5;stroke-linecap:round;stroke-linejoin:round;stroke-miterlimit:10;" x1="459.679" y1="178.525" x2="462.375" y2="176.093"/>
				
					<line style="fill:none;stroke:#333333;stroke-width:0.5;stroke-linecap:round;stroke-linejoin:round;stroke-miterlimit:10;" x1="462.708" y1="181.884" x2="465.405" y2="179.452"/>
				
					<line style="fill:none;stroke:#333333;stroke-width:0.5;stroke-linecap:round;stroke-linejoin:round;stroke-miterlimit:10;" x1="465.738" y1="185.243" x2="468.434" y2="182.811"/>
				
					<line style="fill:none;stroke:#333333;stroke-width:0.5;stroke-linecap:round;stroke-linejoin:round;stroke-miterlimit:10;" x1="468.767" y1="188.602" x2="471.464" y2="186.171"/>
				
					<line style="fill:none;stroke:#333333;stroke-width:0.5;stroke-linecap:round;stroke-linejoin:round;stroke-miterlimit:10;" x1="471.796" y1="191.962" x2="474.493" y2="189.53"/>
				
					<line style="fill:none;stroke:#333333;stroke-width:0.5;stroke-linecap:round;stroke-linejoin:round;stroke-miterlimit:10;" x1="474.826" y1="195.321" x2="477.522" y2="192.889"/>
				
					<line style="fill:none;stroke:#333333;stroke-width:0.5;stroke-linecap:round;stroke-linejoin:round;stroke-miterlimit:10;" x1="477.855" y1="198.68" x2="480.552" y2="196.249"/>
				
					<line style="fill:none;stroke:#333333;stroke-width:0.5;stroke-linecap:round;stroke-linejoin:round;stroke-miterlimit:10;" x1="480.885" y1="202.04" x2="483.581" y2="199.608"/>
				
					<line style="fill:none;stroke:#333333;stroke-width:0.5;stroke-linecap:round;stroke-linejoin:round;stroke-miterlimit:10;" x1="483.914" y1="205.399" x2="486.61" y2="202.967"/>
				
					<line style="fill:none;stroke:#333333;stroke-width:0.5;stroke-linecap:round;stroke-linejoin:round;stroke-miterlimit:10;" x1="486.943" y1="208.758" x2="489.64" y2="206.327"/>
				
					<line style="fill:none;stroke:#333333;stroke-width:0.5;stroke-linecap:round;stroke-linejoin:round;stroke-miterlimit:10;" x1="489.973" y1="212.117" x2="492.669" y2="209.686"/>
				
					<line style="fill:none;stroke:#333333;stroke-width:0.5;stroke-linecap:round;stroke-linejoin:round;stroke-miterlimit:10;" x1="493.002" y1="215.477" x2="495.699" y2="213.045"/>
				
					<line style="fill:none;stroke:#333333;stroke-width:0.5;stroke-linecap:round;stroke-linejoin:round;stroke-miterlimit:10;" x1="496.031" y1="218.836" x2="498.728" y2="216.404"/>
			</g>
		</g>
	</g>
	<g>
		<path style="fill:#6ABAD2;" d="M135.183,100.875l-18.555-16.275l-5.201-12.361l0.516-0.217c1.152-0.485,1.693-1.812,1.209-2.964
			c-0.485-1.152-1.812-1.693-2.964-1.209L94.94,74.264c-1.152,0.485-1.693,1.812-1.209,2.964c0.485,1.152,1.812,1.693,2.964,1.209
			l0.516-0.217l5.201,12.361l-2.037,24.816c-0.282,3.437,3.182,5.947,6.36,4.61l27.2-11.444
			C137.062,107.247,137.733,103.112,135.183,100.875z"/>
		<path style="fill:#6ABAD2;" d="M105.609,112.76l1.888-22.991l-5.493-13.054l4.997-2.103l5.464,12.986l17.193,15.081
			c0.804,0.705,0.592,2.008-0.393,2.423l-21.652,9.11C106.612,114.635,105.52,113.843,105.609,112.76z"/>
		<g>
			<path style="fill:#6ABAD2;" d="M111.006,108.939c0.403,0.958-0.047,2.061-1.005,2.464c-0.958,0.403-2.061-0.047-2.464-1.005
				c-0.403-0.958,0.047-2.061,1.005-2.464C109.499,107.532,110.603,107.981,111.006,108.939z"/>
			<path style="fill:#6ABAD2;" d="M110.946,102.993c0.271,0.645-0.031,1.387-0.676,1.658c-0.645,0.271-1.387-0.032-1.658-0.676
				c-0.271-0.645,0.032-1.387,0.676-1.658C109.932,102.045,110.674,102.348,110.946,102.993z"/>
			<path style="fill:#6ABAD2;" d="M115.071,109.079c0.151,0.358-0.017,0.771-0.376,0.921c-0.358,0.151-0.771-0.018-0.921-0.376
				c-0.151-0.358,0.018-0.771,0.376-0.921C114.508,108.553,114.921,108.721,115.071,109.079z"/>
			<path style="fill:#6ABAD2;" d="M107.902,84.734c0.151,0.358-0.018,0.771-0.376,0.921c-0.358,0.151-0.771-0.017-0.921-0.376
				c-0.151-0.358,0.018-0.771,0.376-0.921C107.339,84.208,107.751,84.376,107.902,84.734z"/>
			<path style="fill:#6ABAD2;" d="M114.418,90.658c0.151,0.358-0.018,0.771-0.376,0.921c-0.358,0.151-0.771-0.018-0.921-0.376
				c-0.151-0.358,0.018-0.771,0.376-0.921C113.855,90.132,114.267,90.3,114.418,90.658z"/>
		</g>
	</g>
</g>
</svg>
